<?xml version="1.0" encoding="UTF-8"?>
<svg version="1.1" xmlns="http://www.w3.org/2000/svg" width="545" height="265">
<path d="M0 0 C4.2475738 3.90147519 7.91254054 8.14224831 11.109375 12.9375 C11.74101562 12.793125 12.37265625 12.64875 13.0234375 12.5 C25.92806013 9.82238378 38.71776958 9.34764223 50.38671875 16.29296875 C52.41092991 17.74216407 54.25793953 19.27441402 56.109375 20.9375 C56.72554688 21.46214844 57.34171875 21.98679688 57.9765625 22.52734375 C64.9434931 28.88130406 68.25431972 36.83086498 70.109375 45.9375 C74.069375 46.4325 74.069375 46.4325 78.109375 46.9375 C78.47289062 46.41800781 78.83640625 45.89851563 79.2109375 45.36328125 C83.44950078 39.48363321 87.79538235 33.89979071 95.109375 31.9375 C98.74495503 31.73552333 101.77650863 31.8586313 105.32421875 32.69921875 C110.32725443 33.01416733 113.04857241 31.37877811 117.296875 28.9375 C118.68012858 28.15582761 120.06930119 27.38451508 121.46484375 26.625 C122.37206177 26.10486328 122.37206177 26.10486328 123.29760742 25.57421875 C125.61837612 24.75861913 126.82491826 25.10926241 129.109375 25.9375 C130.921875 27.1875 130.921875 27.1875 132.109375 28.9375 C132.109375 31.4375 132.109375 31.4375 131.109375 33.9375 C128.76585941 35.75183465 126.47107622 36.81924043 123.66015625 37.73828125 C120.6755455 38.86676911 118.54062758 39.85053319 116.109375 41.9375 C114.82839417 45.50289665 114.25013709 48.8045253 113.8046875 52.5625 C112.86932116 57.10270517 110.9488532 59.63266688 107.1875 62.30078125 C105.49479167 63.1796875 103.80208333 64.05859375 102.109375 64.9375 C102.851875 66.4534375 102.851875 66.4534375 103.609375 68 C106.54051817 75.89585458 106.38005794 85.47383895 103.546875 93.375 C99.12040107 102.6922633 92.37948593 108.06359142 82.92553711 111.80078125 C75.88304053 114.14452411 69.35875719 114.29220983 61.984375 114.125 C60.83710938 114.11146484 59.68984375 114.09792969 58.5078125 114.08398438 C55.70812626 114.0489883 52.90868545 113.99519571 50.109375 113.9375 C51.099375 110.3075 52.089375 106.6775 53.109375 102.9375 C52.779375 102.6075 52.449375 102.2775 52.109375 101.9375 C51.42875 103.0203125 51.42875 103.0203125 50.734375 104.125 C45.16885597 110.0880561 38.10894793 112.49307928 30.109375 112.9375 C30.769375 113.9275 31.429375 114.9175 32.109375 115.9375 C34.39451684 116.3819159 34.39451684 116.3819159 37.0703125 116.30859375 C38.08907471 116.32317627 39.10783691 116.33775879 40.1574707 116.3527832 C41.25534912 116.36011475 42.35322754 116.36744629 43.484375 116.375 C51.63286036 116.56295692 59.44420964 117.03711286 67.421875 118.75 C68.63580933 119.01043091 68.63580933 119.01043091 69.87426758 119.27612305 C73.08327372 119.98720051 76.28161871 120.73534565 79.47460938 121.51513672 C90.10017193 124.09268971 100.21494703 125.31821674 111.171875 125.375 C112.84842163 125.38998535 112.84842163 125.38998535 114.55883789 125.40527344 C124.49669731 125.30149927 133.83433727 123.67936292 142.109375 117.9375 C146.15833928 113.56888065 147.42355391 110.24712766 147.32421875 104.25390625 C146.64050127 96.88218869 144.33231684 91.16044184 139.109375 85.9375 C135.35001124 84.05781812 131.19239199 84.27934204 127.109375 84.9375 C123.12807818 87.19214121 120.56214672 89.57918485 119.109375 93.9375 C118.8039932 98.592297 118.8039932 98.592297 120.109375 102.9375 C120.55716428 109.09460254 120.55716428 109.09460254 119.046875 111.9375 C117.109375 112.9375 117.109375 112.9375 113.671875 113.125 C109.90813592 111.87042031 109.50578344 111.68832647 107.734375 108.4375 C104.7993286 101.30953018 104.37312105 95.23269603 107.1640625 88.00390625 C110.60277221 80.48705733 115.48239927 75.91221021 122.921875 72.625 C129.92338863 70.0427326 136.31724476 69.91064696 143.20703125 72.92578125 C152.21195042 77.71484504 156.54878263 86.49391752 159.78125 95.890625 C161.18824148 104.66757188 161.37108682 114.03318724 156.72265625 121.82421875 C149.01757527 131.91731515 137.65674334 136.65539475 125.359375 138.5 C105.42401596 140.77999024 85.92195086 137.29982264 66.65771484 132.30664062 C56.69339276 129.89954269 46.30914324 129.57120198 36.109375 128.9375 C36.14546875 129.97648438 36.1815625 131.01546875 36.21875 132.0859375 C36.00974825 139.4457849 33.26353913 146.59925858 28.109375 151.9375 C34.69204209 150.8757795 40.76441359 149.10853935 47.046875 146.9375 C61.17311168 142.11983157 76.83425095 138.59300042 91.109375 144.9375 C98.04759194 148.52904759 101.4580463 154.005765 104.421875 161.0625 C106.02009028 170.0706225 106.45274028 178.71809142 101.71875 186.81640625 C97.0091843 193.02343094 90.643692 196.32680679 83.109375 197.9375 C75.46704134 198.80034412 68.33792991 196.83072178 61.95703125 192.46484375 C57.12717547 188.14554355 55.04586888 183.29785428 54.109375 176.9375 C53.80597171 171.21076283 55.13521004 166.40106999 58.39453125 161.66796875 C62.55888797 157.465668 68.08436363 156.17775559 73.796875 155.5 C79.27694851 156.22378329 83.37555219 157.75859618 86.984375 162 C90.13789539 166.35927818 90.34267448 168.32210028 89.67578125 173.5390625 C88.76841294 177.38129796 87.1285222 180.36116106 84.109375 182.9375 C79.95125015 183.68596247 78.64430497 183.29411998 75.109375 180.9375 C73.86873456 177.03834432 73.92668469 175.36642507 75.546875 171.5625 C76.0625 170.69625 76.578125 169.83 77.109375 168.9375 C75.81 169.06125 74.510625 169.185 73.171875 169.3125 C72.44097656 169.38210937 71.71007812 169.45171875 70.95703125 169.5234375 C70.34730469 169.66007813 69.73757813 169.79671875 69.109375 169.9375 C67.35355254 173.44914492 68.15083442 177.22570456 69.109375 180.9375 C72.01149049 184.02684874 74.98113455 184.1668145 79.046875 184.375 C83.77131607 184.22010029 86.56155191 183.21923635 90.109375 179.9375 C92.82790492 174.55517566 92.27868095 169.71624392 91.109375 163.9375 C89.42364201 160.50582927 88.36389071 158.59571939 84.97265625 156.81640625 C70.49779364 152.3732356 55.39952712 157.85772349 41.82104492 162.7644043 C36.7329391 164.55617613 31.90766433 165.57736548 26.546875 166.125 C25.82435547 166.20685547 25.10183594 166.28871094 24.35742188 166.37304688 C22.60902917 166.56988579 20.85932151 166.75499024 19.109375 166.9375 C19.439375 168.5875 19.769375 170.2375 20.109375 171.9375 C20.66625 171.96328125 21.223125 171.9890625 21.796875 172.015625 C28.26074468 172.49604775 33.90967564 173.83307705 38.68359375 178.46484375 C43.98037984 184.67225209 43.62203671 190.01542569 43.109375 197.9375 C41.42280446 203.39405175 37.7108611 206.72691766 33.109375 209.9375 C27.59188263 211.77666412 21.98885459 211.84243462 16.734375 209.3125 C15.868125 208.85875 15.001875 208.405 14.109375 207.9375 C10.59339193 209.21400341 7.85414827 211.60280556 4.921875 213.875 C-5.32043949 221.28118804 -15.44748252 222.35566297 -27.890625 220.9375 C-31.48266454 219.96016062 -34.5774656 218.5940797 -37.890625 216.9375 C-38.550625 216.9375 -39.210625 216.9375 -39.890625 216.9375 C-40.95923495 218.10379452 -41.9709248 219.32255932 -42.953125 220.5625 C-49.88389356 228.65316991 -58.17545779 233.08956439 -68.76953125 234.25390625 C-79.76659401 234.69837684 -88.77318477 231.70246506 -96.953125 224.328125 C-99.03474401 222.54876938 -99.03474401 222.54876938 -102.890625 222.9375 C-105.00441768 223.82663501 -107.08566041 224.79475687 -109.140625 225.8125 C-123.7120834 232.67060611 -139.40997405 233.81103826 -154.890625 228.9375 C-174.32752787 221.571642 -185.1828708 208.43646169 -193.890625 189.9375 C-195.51777656 190.89217564 -197.14227846 191.85136848 -198.765625 192.8125 C-199.67054688 193.34617188 -200.57546875 193.87984375 -201.5078125 194.4296875 C-203.95665782 195.85725352 -203.95665782 195.85725352 -205.890625 197.9375 C-205.61398519 201.16496445 -204.65814488 203.42928487 -203.265625 206.375 C-201.74207508 210.32237934 -201.59226294 211.95585635 -202.890625 215.9375 C-205.09745715 219.28579705 -207.02351096 221.68637487 -210.890625 222.9375 C-213.91486508 223.40793735 -215.95136284 223.57177821 -218.55078125 221.81640625 C-219.11667969 221.36136719 -219.68257812 220.90632812 -220.265625 220.4375 C-223.00834231 218.25910285 -224.51396719 217.6577919 -228.015625 217.875 C-231.890625 217.9375 -231.890625 217.9375 -234.828125 216.0625 C-237.66018833 213.14461657 -237.88129986 212.4783583 -237.953125 208.3125 C-237.9325 207.19875 -237.911875 206.085 -237.890625 204.9375 C-239.1075 204.999375 -240.324375 205.06125 -241.578125 205.125 C-245.52091825 205.11804622 -247.71713509 204.40576993 -250.890625 201.9375 C-251.426875 201.195 -251.963125 200.4525 -252.515625 199.6875 C-255.50197195 197.48703383 -256.42090608 197.90546509 -260.015625 198.375 C-267.49221174 199.3320031 -273.71736441 197.9323416 -279.765625 193.3125 C-285.19944896 188.07136484 -287.10451872 182.26604267 -287.328125 174.8125 C-287.08058657 168.3187418 -285.87865258 164.3120885 -281.640625 159.25 C-274.16603864 152.96455238 -267.44656509 151.5142386 -257.890625 151.9375 C-255.53188311 152.18760426 -253.23075176 152.53918055 -250.890625 152.9375 C-250.41625 152.133125 -249.941875 151.32875 -249.453125 150.5 C-247.890625 147.9375 -247.890625 147.9375 -246.890625 146.9375 C-248.18806641 147.1540625 -248.18806641 147.1540625 -249.51171875 147.375 C-267.33027244 150.00127608 -285.37085376 150.40185284 -302.890625 145.9375 C-322.17465044 141.30619403 -343.39591977 137.01165511 -361.8671875 146.5234375 C-365.16055944 148.82498314 -366.62881063 151.15205689 -367.890625 154.9375 C-368.57358316 161.49389832 -366.73744943 167.03850642 -363.890625 172.9375 C-360.92797647 176.47621908 -359.54419594 176.85450686 -354.953125 177.4375 C-350.70335547 177.20452587 -348.10653918 175.77056726 -344.890625 172.9375 C-342.14838648 167.83711499 -343.17727083 163.44609772 -343.89453125 157.8984375 C-343.890625 154.9375 -343.890625 154.9375 -342.57421875 153.03125 C-340.890625 151.9375 -340.890625 151.9375 -338.390625 152.0625 C-335.64357295 153.02396822 -334.58716518 153.59465879 -332.890625 155.9375 C-330.22044442 161.98054026 -329.99519687 167.8610549 -332.078125 174.0625 C-335.3033041 181.6572766 -340.35388357 185.84645082 -347.890625 188.9375 C-354.35544857 190.75433835 -359.9152558 189.9142407 -365.890625 186.9375 C-373.33378407 182.39388483 -376.19580626 175.376311 -379.203125 167.5 C-381.24084343 156.94091359 -379.52524036 149.73016823 -373.890625 140.75 C-365.92133236 132.02980137 -352.15316683 129.30726398 -340.890625 128.65625 C-325.74688585 128.14634779 -310.95903134 131.14288825 -296.40625 135.0703125 C-276.68756316 139.93425525 -255.05568807 136.77034528 -235.890625 130.9375 C-236.220625 126.9775 -236.550625 123.0175 -236.890625 118.9375 C-253.16444149 116.34480093 -264.76719934 117.05839377 -280.453125 122.5 C-292.76707701 126.72546799 -305.94455429 129.37055762 -318.328125 123.875 C-324.33055211 120.48826471 -327.61412861 115.95467328 -330.265625 109.6875 C-331.52958232 102.10375606 -332.25788791 94.52452802 -328.21875 87.68359375 C-324.20387412 82.40521281 -319.2506421 78.8778442 -312.890625 76.9375 C-305.53566321 76.06937336 -298.84947572 76.84537991 -292.91015625 81.484375 C-287.79038594 86.25578981 -285.88262506 90.43399852 -285.578125 97.4375 C-285.71650261 102.28885607 -286.81521578 105.84507923 -290.3203125 109.37890625 C-295.22141172 113.65822423 -299.1010588 114.28675578 -305.3828125 114.22265625 C-309.93834307 113.70465978 -312.48824862 111.19963875 -315.765625 108.25 C-317.57695231 104.52671609 -317.51451608 100.98928703 -316.890625 96.9375 C-315.265625 93.4375 -315.265625 93.4375 -312.890625 90.9375 C-309.828125 89.875 -309.828125 89.875 -306.890625 89.9375 C-305.015625 91 -305.015625 91 -303.890625 92.9375 C-303.60462311 96.36952271 -303.79872458 98.66179875 -304.890625 101.9375 C-302.580625 101.9375 -300.270625 101.9375 -297.890625 101.9375 C-297.53980019 96.08493682 -297.53980019 96.08493682 -299.890625 90.9375 C-303.33361757 88.38713513 -306.73387049 88.57915909 -310.890625 88.9375 C-314.01308321 90.11578612 -316.14618573 91.02386998 -318.265625 93.625 C-319.9903108 100.00633746 -319.13713889 105.22811351 -315.890625 110.9375 C-311.84285544 114.11470147 -308.06749792 114.48071773 -303.078125 114.4375 C-302.33256348 114.43395508 -301.58700195 114.43041016 -300.81884766 114.42675781 C-293.33242586 114.20884467 -286.82938424 112.11055874 -279.83154297 109.61767578 C-265.34238463 104.54009149 -251.90640221 103.44110281 -236.890625 106.9375 C-236.560625 104.2975 -236.230625 101.6575 -235.890625 98.9375 C-237.06625 99.1025 -238.241875 99.2675 -239.453125 99.4375 C-260.90064124 101.74149859 -260.90064124 101.74149859 -268.890625 96.9375 C-272.31232005 93.79913001 -275.64705503 90.34524909 -276.12890625 85.58203125 C-276.29988415 79.0578744 -275.93265731 75.1495943 -271.890625 69.9375 C-267.95347153 66.45815507 -264.35372151 65.14364552 -259.203125 64.76953125 C-254.244345 65.12971291 -250.40256601 67.47280714 -246.890625 70.875 C-245.60266569 73.53141608 -245.29413314 75.0296022 -245.890625 77.9375 C-248.078125 79.875 -248.078125 79.875 -250.890625 80.9375 C-253.32090572 80.27469617 -255.0917222 79.7364028 -256.890625 77.9375 C-259.890625 77.77083333 -259.890625 77.77083333 -262.890625 77.9375 C-264.30639977 79.12174326 -264.30639977 79.12174326 -263.953125 82.5 C-263.9325 83.634375 -263.911875 84.76875 -263.890625 85.9375 C-254.80214683 89.99658901 -245.53677731 87.6847274 -236.17578125 85.59375 C-232.890625 84.9375 -232.890625 84.9375 -228.890625 84.9375 C-228.705 84.2775 -228.519375 83.6175 -228.328125 82.9375 C-222.41441295 70.59584007 -209.2233349 63.3127471 -196.86328125 58.8125 C-190.93157725 57.06650565 -185.33430019 56.78075966 -179.203125 56.8125 C-178.44451172 56.80863281 -177.68589844 56.80476563 -176.90429688 56.80078125 C-173.6428611 56.80653842 -171.00548752 56.89921249 -167.890625 57.9375 C-167.68759766 57.06351563 -167.68759766 57.06351563 -167.48046875 56.171875 C-163.45876618 40.85569037 -153.79465401 28.5715244 -140.203125 20.5 C-125.15862647 12.17468578 -108.14558844 10.71640797 -91.60302734 15.1027832 C-75.98442647 19.67084953 -63.39800524 30.65337116 -55.515625 44.75 C-52.890625 49.62980769 -52.890625 49.62980769 -52.890625 51.9375 C-52.2821875 51.64875 -51.67375 51.36 -51.046875 51.0625 C-41.15583367 46.87335308 -30.30099621 46.13467316 -20.015625 49.5 C-8.13366115 54.59227022 -0.67814836 62.06887979 4.34765625 73.859375 C6.05676482 78.52217376 6.23267028 82.73969948 6.171875 87.6875 C6.16736328 88.38488281 6.16285156 89.08226563 6.15820312 89.80078125 C6.1464752 91.51305803 6.12854153 93.22529033 6.109375 94.9375 C7.32625 95.411875 8.543125 95.88625 9.796875 96.375 C10.48136719 96.64183594 11.16585938 96.90867187 11.87109375 97.18359375 C16.88346473 98.87187926 21.78770473 99.1767525 27.046875 99.25 C27.73716797 99.27900391 28.42746094 99.30800781 29.13867188 99.33789062 C34.28700972 99.40132986 37.19918283 98.25071627 41.109375 94.9375 C42.84756547 89.7229286 42.69249775 84.78977227 41.046875 79.5625 C38.45828184 76.05537378 36.26983287 75.136276 32.109375 73.9375 C28.96581016 74.05840634 27.00045605 74.41514214 24.296875 76 C22.37825511 79.13037982 22.40715388 82.30459771 22.109375 85.9375 C24.089375 85.9375 26.069375 85.9375 28.109375 85.9375 C28.233125 85.15375 28.356875 84.37 28.484375 83.5625 C29.109375 80.9375 29.109375 80.9375 31.109375 78.9375 C36.27122471 78.38836705 36.27122471 78.38836705 38.921875 80.125 C40.50905616 82.54753967 40.97672765 84.01925832 41.109375 86.9375 C39.88711074 91.03568016 38.69228103 93.39724564 35.546875 96.3125 C29.69894731 99.07697491 24.53705915 99.61406771 18.296875 97.875 C13.74171526 95.10617741 10.83357202 92.11009107 9.109375 86.9375 C8.48786675 80.8777946 9.04300908 75.28581265 12.109375 69.9375 C13.0375 69.15375 13.965625 68.37 14.921875 67.5625 C17.33226162 65.22369102 17.33226162 65.22369102 17.16015625 62.7265625 C15.41817872 52.3386231 9.45329989 42.93220569 1.19921875 36.43359375 C-8.43765429 30.01539799 -19.9952061 27.40992739 -31.36328125 29.609375 C-34.55105624 30.34474856 -37.7242214 31.11531174 -40.890625 31.9375 C-41.41849609 31.19306641 -41.41849609 31.19306641 -41.95703125 30.43359375 C-49.33859856 20.27671131 -57.18234627 13.572027 -68.890625 8.9375 C-63.72520603 -0.27042077 -54.69880878 -5.69745822 -44.890625 -9.0625 C-29.12795829 -13.28464287 -12.62873147 -10.38959468 0 0 Z " fill="#EBEBEB" transform="translate(381.890625,11.0625)"/>
<path d="M0 0 C4.2475738 3.90147519 7.91254054 8.14224831 11.109375 12.9375 C11.74101562 12.793125 12.37265625 12.64875 13.0234375 12.5 C25.92806013 9.82238378 38.71776958 9.34764223 50.38671875 16.29296875 C52.41092991 17.74216407 54.25793953 19.27441402 56.109375 20.9375 C56.72554688 21.46214844 57.34171875 21.98679688 57.9765625 22.52734375 C64.9434931 28.88130406 68.25431972 36.83086498 70.109375 45.9375 C72.749375 46.2675 75.389375 46.5975 78.109375 46.9375 C78.47289062 46.41800781 78.83640625 45.89851563 79.2109375 45.36328125 C83.44950078 39.48363321 87.79538235 33.89979071 95.109375 31.9375 C98.74495503 31.73552333 101.77650863 31.8586313 105.32421875 32.69921875 C110.32725443 33.01416733 113.04857241 31.37877811 117.296875 28.9375 C118.68012858 28.15582761 120.06930119 27.38451508 121.46484375 26.625 C122.06965576 26.27824219 122.67446777 25.93148437 123.29760742 25.57421875 C125.61837612 24.75861913 126.82491826 25.10926241 129.109375 25.9375 C130.921875 27.1875 130.921875 27.1875 132.109375 28.9375 C132.109375 31.4375 132.109375 31.4375 131.109375 33.9375 C128.76585941 35.75183465 126.47107622 36.81924043 123.66015625 37.73828125 C120.6755455 38.86676911 118.54062758 39.85053319 116.109375 41.9375 C114.82839417 45.50289665 114.25013709 48.8045253 113.8046875 52.5625 C112.86932116 57.10270517 110.9488532 59.63266688 107.1875 62.30078125 C105.49479167 63.1796875 103.80208333 64.05859375 102.109375 64.9375 C102.851875 66.4534375 102.851875 66.4534375 103.609375 68 C106.54051817 75.89585458 106.38005794 85.47383895 103.546875 93.375 C99.12040107 102.6922633 92.37948593 108.06359142 82.92553711 111.80078125 C75.88304053 114.14452411 69.35875719 114.29220983 61.984375 114.125 C60.83710938 114.11146484 59.68984375 114.09792969 58.5078125 114.08398438 C55.70812626 114.0489883 52.90868545 113.99519571 50.109375 113.9375 C51.099375 110.3075 52.089375 106.6775 53.109375 102.9375 C52.779375 102.6075 52.449375 102.2775 52.109375 101.9375 C51.42875 103.0203125 51.42875 103.0203125 50.734375 104.125 C45.91898504 109.28434638 39.94519155 112.18787224 32.859375 112.5625 C27.92286943 112.30796143 25.64288083 110.39069888 22.109375 106.9375 C16.58322918 103.38497768 10.49950897 102.81640192 4.109375 101.9375 C4.439375 100.2875 4.769375 98.6375 5.109375 96.9375 C6.50550565 97.08045891 7.90126808 97.22701558 9.296875 97.375 C10.46283203 97.49681641 10.46283203 97.49681641 11.65234375 97.62109375 C14.109375 97.9375 14.109375 97.9375 16.4140625 98.453125 C19.95760701 99.0899359 23.45784395 99.2000135 27.046875 99.25 C27.73716797 99.27900391 28.42746094 99.30800781 29.13867188 99.33789062 C34.28700972 99.40132986 37.19918283 98.25071627 41.109375 94.9375 C42.84756547 89.7229286 42.69249775 84.78977227 41.046875 79.5625 C38.45828184 76.05537378 36.26983287 75.136276 32.109375 73.9375 C28.96581016 74.05840634 27.00045605 74.41514214 24.296875 76 C22.37825511 79.13037982 22.40715388 82.30459771 22.109375 85.9375 C24.089375 85.9375 26.069375 85.9375 28.109375 85.9375 C28.295 84.761875 28.295 84.761875 28.484375 83.5625 C29.109375 80.9375 29.109375 80.9375 31.109375 78.9375 C36.27122471 78.38836705 36.27122471 78.38836705 38.921875 80.125 C40.50905616 82.54753967 40.97672765 84.01925832 41.109375 86.9375 C39.88711074 91.03568016 38.69228103 93.39724564 35.546875 96.3125 C29.69894731 99.07697491 24.53705915 99.61406771 18.296875 97.875 C13.74171526 95.10617741 10.83357202 92.11009107 9.109375 86.9375 C8.48786675 80.8777946 9.04300908 75.28581265 12.109375 69.9375 C13.0375 69.15375 13.965625 68.37 14.921875 67.5625 C17.33226162 65.22369102 17.33226162 65.22369102 17.16015625 62.7265625 C15.41817872 52.3386231 9.45329989 42.93220569 1.19921875 36.43359375 C-8.43765429 30.01539799 -19.9952061 27.40992739 -31.36328125 29.609375 C-34.55105624 30.34474856 -37.7242214 31.11531174 -40.890625 31.9375 C-41.24253906 31.44121094 -41.59445312 30.94492187 -41.95703125 30.43359375 C-49.33859856 20.27671131 -57.18234627 13.572027 -68.890625 8.9375 C-63.72520603 -0.27042077 -54.69880878 -5.69745822 -44.890625 -9.0625 C-29.12795829 -13.28464287 -12.62873147 -10.38959468 0 0 Z " fill="#EBEBEB" transform="translate(381.890625,11.0625)"/>
<path d="M0 0 C4.7643645 0.4203851 7.8022873 2.59094422 11 6 C13.89914347 10.44535331 14.31571333 13.73811115 14 19 C20.53684662 18.74614188 23.85379493 18.1725987 29 14 C32.49305789 14.06022514 34.90366489 14.36341832 37.9375 16.125 C39.69297303 19.22289358 39.48723574 21.52844534 39 25 C37.0625 27.4375 37.0625 27.4375 34 29 C32.11889648 28.97680664 32.11889648 28.97680664 29.99609375 28.78515625 C23.88964945 28.68705333 19.324235 31.24964668 14 34 C11.95731774 35.01750242 9.91434677 36.03442545 7.87109375 37.05078125 C6.87319824 37.55432129 5.87530273 38.05786133 4.84716797 38.57666016 C0.95342828 40.52319612 -2.98730482 42.35917187 -6.9375 44.1875 C-12.53427449 46.80692451 -18.09369844 49.49496284 -23.625 52.25 C-24.26429443 52.56735107 -24.90358887 52.88470215 -25.56225586 53.21166992 C-28.70280288 54.78711902 -31.7549365 56.43497524 -34.7734375 58.234375 C-38 60 -38 60 -41 60 C-41 60.66 -41 61.32 -41 62 C-43.1171875 63.4375 -43.1171875 63.4375 -45.875 65 C-49.68883379 67.16744189 -49.68883379 67.16744189 -53 70 C-52.72336019 73.22746445 -51.76751988 75.49178487 -50.375 78.4375 C-48.85145008 82.38487934 -48.70163794 84.01835635 -50 88 C-52.20683215 91.34829705 -54.13288596 93.74887487 -58 95 C-61.02424008 95.47043735 -63.06073784 95.63427821 -65.66015625 93.87890625 C-66.22605469 93.42386719 -66.79195313 92.96882813 -67.375 92.5 C-70.11771731 90.32160285 -71.62334219 89.7202919 -75.125 89.9375 C-79 90 -79 90 -81.9375 88.125 C-84.76956333 85.20711657 -84.99067486 84.5408583 -85.0625 80.375 C-85.041875 79.26125 -85.02125 78.1475 -85 77 C-86.8253125 77.0928125 -86.8253125 77.0928125 -88.6875 77.1875 C-92.63029325 77.18054622 -94.82651009 76.46826993 -98 74 C-98.53625 73.2575 -99.0725 72.515 -99.625 71.75 C-102.61134695 69.54953383 -103.53028108 69.96796509 -107.125 70.4375 C-114.60158674 71.3945031 -120.82673941 69.9948416 -126.875 65.375 C-132.30882396 60.13386484 -134.21389372 54.32854267 -134.4375 46.875 C-134.18996157 40.3812418 -132.98802758 36.3745885 -128.75 31.3125 C-121.27541364 25.02705238 -114.55594009 23.5767386 -105 24 C-102.64125811 24.25010426 -100.34012676 24.60168055 -98 25 C-97.62875 24.236875 -97.2575 23.47375 -96.875 22.6875 C-94.53549425 19.33420843 -92.83971897 18.37650303 -89 17 C-85.0643287 16.43665881 -81.79132169 16.680104 -78.0625 18.1875 C-75.56746278 20.38010847 -75.26406316 21.74322102 -75 25 C-73.92566963 24.76404114 -73.92566963 24.76404114 -72.82963562 24.52331543 C-70.09857802 24.01823111 -67.49726135 23.7748959 -64.72583008 23.62695312 C-63.18316216 23.54181458 -63.18316216 23.54181458 -61.60932922 23.45495605 C-60.50719589 23.39763306 -59.40506256 23.34031006 -58.26953125 23.28125 C-56.55113289 23.18704773 -56.55113289 23.18704773 -54.79801941 23.09094238 C-51.13635511 22.89055659 -47.47446007 22.6949003 -43.8125 22.5 C-40.16842159 22.30463939 -36.52441324 22.10819046 -32.88053894 21.90905762 C-30.61561861 21.78541142 -28.35057759 21.66394974 -26.08540344 21.54504395 C-20.44667788 21.23854448 -14.84402664 20.83275356 -9.23164368 20.20301819 C-5.28280201 19.84378222 -1.33653161 19.89465482 2.625 19.9375 C3.43839844 19.94201172 4.25179687 19.94652344 5.08984375 19.95117188 C7.05992898 19.96276061 9.02997536 19.98068603 11 20 C9.85421532 11.65508165 9.85421532 11.65508165 5 5 C2.38181544 3.66701026 2.38181544 3.66701026 0 3 C0 2.01 0 1.02 0 0 Z " fill="#9CDEF9" transform="translate(229,139)"/>
<path d="M0 0 C7.83793728 4.5199336 11.82006034 13.66296612 14.671875 21.953125 C16.07886648 30.73007188 16.26171182 40.09568724 11.61328125 47.88671875 C3.90820027 57.97981515 -7.45263166 62.71789475 -19.75 64.5625 C-39.68535904 66.84249024 -59.18742414 63.36232264 -78.45166016 58.36914062 C-88.41904766 55.96130217 -98.79990651 55.65088758 -109 55 C-109.99 51.04 -110.98 47.08 -112 43 C-95.78951873 42.49864491 -81.34885082 43.72123837 -65.63037109 47.58203125 C-55.0073566 50.15730749 -44.89107664 51.38073411 -33.9375 51.4375 C-32.81980225 51.44749023 -31.70210449 51.45748047 -30.55053711 51.46777344 C-20.61267769 51.36399927 -11.27503773 49.74186292 -3 44 C1.04896428 39.63138065 2.31417891 36.30962766 2.21484375 30.31640625 C1.53112627 22.94468869 -0.77705816 17.22294184 -6 12 C-9.75936376 10.12031812 -13.91698301 10.34184204 -18 11 C-21.98129682 13.25464121 -24.54722828 15.64168485 -26 20 C-26.3053818 24.654797 -26.3053818 24.654797 -25 29 C-24.55221072 35.15710254 -24.55221072 35.15710254 -26.0625 38 C-28 39 -28 39 -31.4375 39.1875 C-35.20123908 37.93292031 -35.60359156 37.75082647 -37.375 34.5 C-40.3100464 27.37203018 -40.73625395 21.29519603 -37.9453125 14.06640625 C-34.50660279 6.54955733 -29.62697573 1.97471021 -22.1875 -1.3125 C-14.40433589 -4.18305228 -7.35728853 -3.91280848 0 0 Z " fill="#A0DFF9" transform="translate(527,85)"/>
<path d="M0 0 C17.00839915 4.19540512 36.6372948 2.70568845 53.375 -2.2265625 C56.28667169 -3.06674637 58.51238051 -3.31482732 61.515625 -3.1328125 C65.515625 3.6171875 65.515625 3.6171875 65.515625 5.8671875 C59.26355402 7.8253083 53.00621316 9.76645181 46.703125 11.5546875 C45.89230469 11.78542969 45.08148438 12.01617187 44.24609375 12.25390625 C27.87120838 15.93181326 9.66657408 14.98273984 -6.484375 10.8671875 C-25.76840044 6.23588153 -46.98966977 1.94134261 -65.4609375 11.453125 C-68.75430944 13.75467064 -70.22256063 16.08174439 -71.484375 19.8671875 C-72.16733316 26.42358582 -70.33119943 31.96819392 -67.484375 37.8671875 C-64.52172647 41.40590658 -63.13794594 41.78419436 -58.546875 42.3671875 C-54.29710547 42.13421337 -51.70028918 40.70025476 -48.484375 37.8671875 C-45.74213648 32.76680249 -46.77102083 28.37578522 -47.48828125 22.828125 C-47.484375 19.8671875 -47.484375 19.8671875 -46.16796875 17.9609375 C-44.484375 16.8671875 -44.484375 16.8671875 -41.984375 16.9921875 C-39.23732295 17.95365572 -38.18091518 18.52434629 -36.484375 20.8671875 C-33.81419442 26.91022776 -33.58894687 32.7907424 -35.671875 38.9921875 C-38.8970541 46.5869641 -43.94763357 50.77613832 -51.484375 53.8671875 C-57.94919857 55.68402585 -63.5090058 54.8439282 -69.484375 51.8671875 C-76.92753407 47.32357233 -79.78955626 40.3059985 -82.796875 32.4296875 C-84.83459343 21.87060109 -83.11899036 14.65985573 -77.484375 5.6796875 C-59.21050899 -14.31603214 -22.54386968 -6.08401504 0 0 Z " fill="#A0E0F9" transform="translate(85.484375,146.1328125)"/>
<path d="M0 0 C5.64024106 4.42971763 8.94897542 10.83172509 10.1875 17.8125 C11.00067558 26.8123757 10.80226797 34.41245387 5.1875 41.8125 C-0.60864391 47.74724735 -7.5679423 50.33327574 -15.6875 51.25 C-22.68051912 50.91500507 -29.58603317 48.36148619 -34.8125 43.6875 C-39.45734437 38.46205008 -41.19442842 32.10995259 -40.8125 25.1875 C-39.97951284 20.33556449 -38.3051387 16.33696229 -34.8125 12.8125 C-29.49819599 9.62032077 -24.01688431 7.99305302 -17.8125 8.8125 C-11.93833628 10.63551633 -9.30916077 12.97888069 -5.8125 17.8125 C-4.04530133 21.34689734 -4.927599 25.06540197 -5.8125 28.8125 C-7.0781795 31.6081776 -8.46814539 33.81198406 -10.8125 35.8125 C-14.97062485 36.56096247 -16.27757003 36.16911998 -19.8125 33.8125 C-21.05314044 29.91334432 -20.99519031 28.24142507 -19.375 24.4375 C-18.859375 23.57125 -18.34375 22.705 -17.8125 21.8125 C-19.111875 21.93625 -20.41125 22.06 -21.75 22.1875 C-22.84634766 22.29191406 -22.84634766 22.29191406 -23.96484375 22.3984375 C-24.57457031 22.53507812 -25.18429687 22.67171875 -25.8125 22.8125 C-27.56832246 26.32414492 -26.77104058 30.10070456 -25.8125 33.8125 C-22.91038451 36.90184874 -19.94074045 37.0418145 -15.875 37.25 C-11.15055893 37.09510029 -8.36032309 36.09423635 -4.8125 32.8125 C-2.09397008 27.43017566 -2.64319405 22.59124392 -3.8125 16.8125 C-5.49823299 13.38082927 -6.55798429 11.47071939 -9.94921875 9.69140625 C-23.6730068 5.47878372 -37.85662431 10.28739935 -50.8125 14.8125 C-57.58762567 17.15220049 -63.71398533 18.95214739 -70.9375 19.1875 C-71.97132813 19.23648438 -73.00515625 19.28546875 -74.0703125 19.3359375 C-76.8125 18.8125 -76.8125 18.8125 -78.6796875 16.4140625 C-79.8125 13.8125 -79.8125 13.8125 -79.8125 11.8125 C-78.27351439 11.01563394 -76.73116216 10.22526859 -75.1875 9.4375 C-74.32898438 8.99664062 -73.47046875 8.55578125 -72.5859375 8.1015625 C-69.70395809 6.76205094 -66.83343251 5.79698687 -63.8125 4.8125 C-62.88800049 4.50570312 -61.96350098 4.19890625 -61.01098633 3.8828125 C-57.88475525 2.8518299 -54.75504489 1.83184205 -51.625 0.8125 C-50.0152832 0.27882812 -50.0152832 0.27882812 -48.37304688 -0.265625 C-32.8966009 -5.28400071 -14.67878851 -9.32386566 0 0 Z " fill="#9FDFF9" transform="translate(476.8125,158.1875)"/>
<path d="M0 0 C4.58012885 2.69307783 7.95552549 6.24698847 10.32421875 10.984375 C11.52384621 17.64897202 11.84433348 23.30487339 7.88671875 29.109375 C3.69039183 33.34009804 0.04289809 35.24767391 -5.92578125 35.421875 C-11.78458776 35.36209126 -14.70522821 33.27662274 -18.98828125 29.421875 C-20.79960856 25.69859109 -20.73717233 22.16116203 -20.11328125 18.109375 C-18.48828125 14.609375 -18.48828125 14.609375 -16.11328125 12.109375 C-13.05078125 11.046875 -13.05078125 11.046875 -10.11328125 11.109375 C-8.23828125 12.171875 -8.23828125 12.171875 -7.11328125 14.109375 C-6.82727936 17.54139771 -7.02138083 19.83367375 -8.11328125 23.109375 C-5.80328125 23.109375 -3.49328125 23.109375 -1.11328125 23.109375 C-0.76245644 17.25681182 -0.76245644 17.25681182 -3.11328125 12.109375 C-6.55627382 9.55901013 -9.95652674 9.75103409 -14.11328125 10.109375 C-17.23573946 11.28766112 -19.36884198 12.19574498 -21.48828125 14.796875 C-23.21296705 21.17821246 -22.35979514 26.39998851 -19.11328125 32.109375 C-15.06551169 35.28657647 -11.29015417 35.65259273 -6.30078125 35.609375 C-5.18243896 35.60405762 -5.18243896 35.60405762 -4.04150391 35.59863281 C3.44491789 35.38071967 9.94795951 33.28243374 16.94580078 30.78955078 C29.9730268 26.22428642 42.18653959 24.55705797 55.88671875 27.109375 C56.87671875 27.769375 57.86671875 28.429375 58.88671875 29.109375 C59.1796875 31.4921875 59.1796875 31.4921875 59.07421875 34.234375 C59.03361328 35.59949219 59.03361328 35.59949219 58.9921875 36.9921875 C58.95738281 37.69085938 58.92257813 38.38953125 58.88671875 39.109375 C57.9891687 39.04036987 57.9891687 39.04036987 57.07348633 38.9699707 C41.3470624 37.82669759 29.33436692 39.21654885 14.4050293 44.32910156 C2.7298232 48.25754667 -9.92678222 50.20535133 -21.55078125 45.046875 C-27.55320836 41.66013971 -30.83678486 37.12654828 -33.48828125 30.859375 C-34.75223857 23.27563106 -35.48054416 15.69640302 -31.44140625 8.85546875 C-23.81570383 -1.17008708 -11.76540887 -5.05936446 0 0 Z " fill="#A0E0F9" transform="translate(85.11328125,89.890625)"/>
<path d="M0 0 C-2.79414192 2.27471042 -5.27031418 3.62871797 -8.68359375 4.76171875 C-9.59923096 5.07133545 -10.51486816 5.38095215 -11.45825195 5.69995117 C-12.44140381 6.02584229 -13.42455566 6.3517334 -14.4375 6.6875 C-24.62969891 10.15168681 -34.6907623 13.86409805 -44.72998047 17.74560547 C-47.9297284 18.97304349 -51.13484077 20.1851539 -54.34214783 21.39265442 C-57.41866128 22.55134824 -60.49336062 23.71481573 -63.56796265 24.87857056 C-65.09198591 25.45423473 -66.61673475 26.02798205 -68.14224243 26.59970093 C-70.30268197 27.40992143 -72.46015478 28.22763492 -74.6171875 29.046875 C-75.2580983 29.28519547 -75.89900909 29.52351593 -76.55934143 29.76905823 C-79.81622325 31.01428229 -82.83649178 32.42345547 -85.83642578 34.18457031 C-89 36 -89 36 -91 36 C-90.505 37.051875 -90.505 37.051875 -90 38.125 C-88.88118207 41.34160154 -88.63242462 43.61830655 -89 47 C-90.0625 48.9375 -90.0625 48.9375 -92 50 C-96.83499805 49.7210578 -101.43750134 48.61029364 -106 47 C-108 44 -108 44 -108 41 C-109.36125 40.9071875 -109.36125 40.9071875 -110.75 40.8125 C-114 40 -114 40 -116.375 37.875 C-118.36368076 34.3565648 -118.31215868 31.98002315 -118 28 C-118.639375 27.690625 -119.27875 27.38125 -119.9375 27.0625 C-122 26 -122 26 -123 25 C-123.375 21.6875 -123.375 21.6875 -123 18 C-120.75 15.5625 -120.75 15.5625 -118 14 C-116.68 14 -115.36 14 -114 14 C-113.690625 13.360625 -113.38125 12.72125 -113.0625 12.0625 C-112 10 -112 10 -111 9 C-106.96839809 8.73706944 -105.44107266 8.70595156 -102 11 C-102 11.66 -102 12.32 -102 13 C-101.07179443 12.86948242 -100.14358887 12.73896484 -99.18725586 12.60449219 C-94.77096913 11.98418883 -90.35430568 11.36659659 -85.9375 10.75 C-85.12645813 10.6367337 -84.31541626 10.52346741 -83.47979736 10.4067688 C-71.02184414 8.66967909 -58.55534134 7.03069983 -46.07543945 5.45898438 C-36.50408742 4.23676469 -26.97279126 2.81481288 -17.45654297 1.21850586 C-11.54748324 0.25851361 -5.98756184 -0.17355252 0 0 Z " fill="#BBEBFE" transform="translate(258,161)"/>
<path d="M0 0 C6.82506582 3.9092532 10.78057498 8.68412178 13.06640625 16.18359375 C14.08007936 24.46045503 14.27321981 33.25084478 9.06640625 40.18359375 C2.95626266 46.07688464 -3.02101445 48.72509516 -11.5078125 48.57421875 C-15.29219986 47.9648166 -17.25084732 45.80536867 -19.93359375 43.18359375 C-25.45973957 39.63107143 -31.54345978 39.06249567 -37.93359375 38.18359375 C-37.60359375 36.53359375 -37.27359375 34.88359375 -36.93359375 33.18359375 C-35.5374631 33.32655266 -34.14170067 33.47310933 -32.74609375 33.62109375 C-31.96878906 33.70230469 -31.19148438 33.78351563 -30.390625 33.8671875 C-27.93359375 34.18359375 -27.93359375 34.18359375 -25.62890625 34.69921875 C-22.08536174 35.33602965 -18.5851248 35.44610725 -14.99609375 35.49609375 C-14.30580078 35.52509766 -13.61550781 35.55410156 -12.90429688 35.58398438 C-7.75595903 35.64742361 -4.84378592 34.49681002 -0.93359375 31.18359375 C0.80459672 25.96902235 0.649529 21.03586602 -0.99609375 15.80859375 C-3.58468691 12.30146753 -5.77313588 11.38236975 -9.93359375 10.18359375 C-13.07715859 10.30450009 -15.0425127 10.66123589 -17.74609375 12.24609375 C-19.66471364 15.37647357 -19.63581487 18.55069146 -19.93359375 22.18359375 C-17.95359375 22.18359375 -15.97359375 22.18359375 -13.93359375 22.18359375 C-13.80984375 21.39984375 -13.68609375 20.61609375 -13.55859375 19.80859375 C-12.93359375 17.18359375 -12.93359375 17.18359375 -10.93359375 15.18359375 C-5.77174404 14.6344608 -5.77174404 14.6344608 -3.12109375 16.37109375 C-1.53391259 18.79363342 -1.0662411 20.26535207 -0.93359375 23.18359375 C-2.15585801 27.28177391 -3.35068772 29.64333939 -6.49609375 32.55859375 C-12.34402144 35.32306866 -17.5059096 35.86016146 -23.74609375 34.12109375 C-28.30125349 31.35227116 -31.20939673 28.35618482 -32.93359375 23.18359375 C-33.55399953 17.13463739 -33.09410837 11.47717654 -29.93359375 6.18359375 C-21.78763646 -3.12005773 -10.96527428 -5.5112422 0 0 Z " fill="#9FDFF9" transform="translate(423.93359375,74.81640625)"/>
<path d="M0 0 C3.23831798 3.06327376 4.07090285 5.33254356 4.875 9.5625 C6.49562171 15.86596467 11.07658445 18.97488737 16.08544922 22.71313477 C20.79196031 26.32549633 20.79196031 26.32549633 22 30.2421875 C22 33 22 33 20.875 34.875 C18.32477355 36.40513587 16.95031056 36.37999658 14 36 C11.46484375 34.06640625 11.46484375 34.06640625 8.9375 31.5625 C5.1006391 27.55745521 5.1006391 27.55745521 0 26 C-0.886875 26.309375 -1.77375 26.61875 -2.6875 26.9375 C-8.01045528 28.64486301 -12.79321774 28.70617032 -18.125 27 C-24.89487577 22.2905212 -29.10280019 15.57509563 -33.32421875 8.61328125 C-35.96011634 4.50275563 -38.35062397 0.9717914 -42.75 -1.3125 C-43.8225 -1.869375 -44.895 -2.42625 -46 -3 C-36.59809179 -12.40190821 -9.32776616 -7.55946926 0 0 Z " fill="#629564" transform="translate(479,229)"/>
<path d="M0 0 C1.8125 1.25 1.8125 1.25 3 3 C3 5.5 3 5.5 2 8 C-0.34351559 9.81433465 -2.63829878 10.88174043 -5.44921875 11.80078125 C-8.4338295 12.92926911 -10.56874742 13.91303319 -13 16 C-14.28098083 19.56539665 -14.85923791 22.8670253 -15.3046875 26.625 C-16.39786183 31.93119452 -18.76698958 34.11683491 -23.09765625 37.21875 C-27.63401785 39.62653905 -32.39325548 39.99091491 -37.4375 40.5 C-45.91481745 41.35922846 -51.90993759 43.27329173 -59 48 C-58.69256185 39.23801275 -55.45336956 31.91470232 -52 24 C-51.65710938 23.17628906 -51.31421875 22.35257813 -50.9609375 21.50390625 C-48.16574042 15.26940146 -43.73055184 10.05876538 -37.5 7.0625 C-32.63132557 5.58450955 -28.73223095 5.58645887 -23.79296875 6.765625 C-18.7860669 7.07501131 -16.06394912 5.44308625 -11.8125 3 C-10.42924642 2.21832761 -9.04007381 1.44701508 -7.64453125 0.6875 C-7.03971924 0.34074219 -6.43490723 -0.00601563 -5.81176758 -0.36328125 C-3.49099888 -1.17888087 -2.28445674 -0.82823759 0 0 Z " fill="#619463" transform="translate(511,37)"/>
<path d="M0 0 C4.04730094 1.3775452 6.36545045 4.26669078 9.3125 7.265625 C11.48267671 9.16852168 11.48267671 9.16852168 14.1875 8.6875 C14.9815625 8.42195313 15.775625 8.15640625 16.59375 7.8828125 C21.17446238 6.35590837 25.00068241 6.35178997 29.59375 7.8828125 C36.51943779 12.49993769 40.67470884 19.28932759 44.8203125 26.3671875 C46.78107223 29.1485295 48.88293558 30.84756382 51.59375 32.8828125 C52.60547246 33.87095099 53.60798338 34.86877889 54.59375 35.8828125 C43.23434393 38.74268311 28.34708566 40.67252414 17.50390625 35.203125 C12.58999486 31.80659729 9.82633316 28.32001 8.40625 22.5078125 C6.855111 16.84278312 2.66515518 14.41991684 -2.0078125 11.21875 C-5.08656869 8.22022198 -5.19244039 6.0877349 -5.40625 1.8828125 C-2.40625 -0.1171875 -2.40625 -0.1171875 0 0 Z " fill="#649666" transform="translate(44.40625,38.1171875)"/>
<path d="M0 0 C0.66 0.33 1.32 0.66 2 1 C-4.62039373 25.53771464 -4.62039373 25.53771464 -14 34 C-18.82489645 36.71948709 -22.5006263 37.40736102 -28 37 C-28.75023438 36.75765625 -29.50046875 36.5153125 -30.2734375 36.265625 C-34.15927806 35.88706174 -36.73637395 37.62411238 -40 39.5 C-46.19568941 43.06119754 -46.19568941 43.06119754 -49.875 42.78125 C-52 42 -52 42 -53 41 C-53.04080783 39.00041636 -53.04254356 36.99954746 -53 35 C-50.87767021 33.82823482 -48.75242209 32.66245215 -46.625 31.5 C-46.02171875 31.16613281 -45.4184375 30.83226562 -44.796875 30.48828125 C-40.2265625 28 -40.2265625 28 -38 28 C-38.33 27.01 -38.66 26.02 -39 25 C-38.50301401 18.78767516 -36.67071401 14.26456496 -32 10 C-25.80898676 7.32585388 -19.9137099 6.16281978 -13.26757812 5.27148438 C-9.40264881 4.67715039 -6.46882501 3.86952285 -3.09765625 1.83984375 C-2.07542969 1.23269531 -1.05320313 0.62554687 0 0 Z " fill="#649665" transform="translate(81,198)"/>
<path d="M0 0 C3.75916716 2.05045481 5.62598016 3.43897024 8 7 C8.4375 9.5 8.4375 9.5 8 12 C5.8125 13.9375 5.8125 13.9375 3 15 C0.56971928 14.33719617 -1.2010972 13.7989028 -3 12 C-6 11.83333333 -6 11.83333333 -9 12 C-10.41577477 13.18424326 -10.41577477 13.18424326 -10.0625 16.5625 C-10.041875 17.696875 -10.02125 18.83125 -10 20 C-1.99687106 23.6143163 6.17624805 22.14663005 14.5390625 20.4453125 C17.39088642 19.92926817 20.10830489 19.84369216 23 20 C22.34733531 22.00461299 21.67795528 24.00379834 21 26 C20.71125 26.9075 20.4225 27.815 20.125 28.75 C19 31 19 31 17.25 32.25 C8.12480615 35.29173128 -4.11753617 35.66822302 -13.12890625 32.125 C-17.10283274 29.73566632 -19.94297642 26.11404717 -22 22 C-22.72218508 14.86102291 -22.44960235 9.73764514 -18 4 C-11.8741053 -0.75069385 -7.42169444 -1.65911599 0 0 Z " fill="#A0E0F9" transform="translate(128,77)"/>
<path d="M0 0 C6.34693035 -0.45335217 10.72683822 0.30427978 16 4 C19.2625856 7.16567712 21.87016178 10.1922525 22.203125 14.828125 C22.36371528 26.55121528 22.36371528 26.55121528 19 31 C14.36684755 35.62219937 10.90549528 38.12616599 4.1875 38.25 C-0.24108274 38.22406394 -3.19541137 37.40289808 -7 35 C-6.42365861 30.24518354 -4.44931479 27.02951788 -2 23 C-1.01 23.66 -0.02 24.32 1 25 C5.34170904 24.9068565 5.34170904 24.9068565 9 23 C9.07148199 21.64756083 9.08399454 20.29165633 9.0625 18.9375 C9.041875 17.638125 9.02125 16.33875 9 15 C8.43410156 14.83886719 7.86820312 14.67773438 7.28515625 14.51171875 C4.77543027 13.58104708 3.02123407 12.77338718 1 11 C-0.0217367 7.32068907 -0.1049094 3.80296566 0 0 Z " fill="#9EDFF9" transform="translate(403,184)"/>
<path d="M0 0 C0.99 0.33 1.98 0.66 3 1 C1.31578947 4.75708502 1.31578947 4.75708502 -0.625 6.25 C-2.96545598 9.22876215 -2.23787797 12.31289152 -2 16 C-0.87465895 17.35618499 -0.87465895 17.35618499 2.0625 17.0625 C3.5165625 17.0315625 3.5165625 17.0315625 5 17 C5.33 16.34 5.66 15.68 6 15 C8.96175123 15.61277612 10.38058783 16.25372522 13 18 C11.63016497 21.16115776 11.0109362 21.9927092 8 24 C3.36582219 24.50371498 0.67636336 23.88147398 -3 21 C-6.56851128 17.06233238 -6.61624629 12.70956957 -6.4921875 7.609375 C-5.9474357 4.72132577 -5.36256219 3.67617448 -3.1875 1.75 C-2.135625 1.1725 -1.08375 0.595 0 0 Z " fill="#F6FCFE" transform="translate(112,175)"/>
<path d="M0 0 C-0.12109375 1.859375 -0.12109375 1.859375 -1 4 C-3.72265625 5.265625 -3.72265625 5.265625 -7.0625 6.25 C-8.16722656 6.58515625 -9.27195312 6.9203125 -10.41015625 7.265625 C-11.26480469 7.50796875 -12.11945313 7.7503125 -13 8 C-10.31767339 9.78821774 -7.69711039 11.20142604 -4.8125 12.625 C-3.91144531 13.07101563 -3.01039063 13.51703125 -2.08203125 13.9765625 C-1.39496094 14.31429687 -0.70789063 14.65203125 0 15 C0 15.99 0 16.98 0 18 C-5.20285068 17.42460686 -9.23956036 15.70581107 -13.875 13.4375 C-14.56335938 13.10814453 -15.25171875 12.77878906 -15.9609375 12.43945312 C-17.6438733 11.63304639 -19.32240293 10.81745506 -21 10 C-21 8.68 -21 7.36 -21 6 C-18.25262623 4.99222971 -15.50250048 3.99358554 -12.75 3 C-11.97269531 2.71382812 -11.19539063 2.42765625 -10.39453125 2.1328125 C-9.64042969 1.86210937 -8.88632812 1.59140625 -8.109375 1.3125 C-7.41811523 1.06113281 -6.72685547 0.80976563 -6.01464844 0.55078125 C-4 0 -4 0 0 0 Z " fill="#2F2B2C" transform="translate(309,130)"/>
<path d="M0 0 C4.28760645 1.40867501 6.91917898 3.48207035 10.1875 6.5625 C13.34188937 9.64185798 13.34188937 9.64185798 17 12 C17 13.32 17 14.64 17 16 C9.307359 16.84800767 1.73708326 17.12152487 -6 17 C-5.4453125 15.046875 -5.4453125 15.046875 -4 13 C0.66372139 12.12764924 5.24390475 12.17294892 10 12 C6.37 9.03 2.74 6.06 -1 3 C-0.67 2.01 -0.34 1.02 0 0 Z " fill="#292526" transform="translate(233,112)"/>
<path d="M0 0 C0.33 0.99 0.66 1.98 1 3 C-0.01320313 3.18175781 -0.01320313 3.18175781 -1.046875 3.3671875 C-1.93890625 3.53476563 -2.8309375 3.70234375 -3.75 3.875 C-4.63171875 4.03742188 -5.5134375 4.19984375 -6.421875 4.3671875 C-9.88712357 5.21774851 -12.32092981 5.9134877 -14.25 9 C-15.59767908 14.39071633 -15.94975038 19.7680866 -13.75 24.9375 C-11.09667257 28.0646359 -8.89719409 29.7009353 -5 31 C-5 31.99 -5 32.98 -5 34 C-10.22588808 33.68327951 -13.5609835 30.69889181 -17 27 C-20.09925895 22.13416345 -19.93639317 16.54032627 -19 11 C-14.67609035 3.36028322 -8.75999082 -0.51529358 0 0 Z " fill="#595959" transform="translate(298,153)"/>
<path d="M0 0 C3.14711179 -0.2145758 5.44617664 -0.23318878 8.375 1 C10.57321707 3.70549793 10.56882702 5.70889998 10.38671875 9.125 C10 11 10 11 8.3125 13 C5.58797975 14.17817092 3.93677726 14.45181189 1 14 C-0.703125 12.83203125 -0.703125 12.83203125 -2 11 C-1.85546875 8.30078125 -1.85546875 8.30078125 -1.1875 5.3125 C-0.97480469 4.31863281 -0.76210938 3.32476562 -0.54296875 2.30078125 C-0.36378906 1.54152344 -0.18460937 0.78226563 0 0 Z " fill="#FBFDFE" transform="translate(403,196)"/>
<path d="M0 0 C1.9375 1.125 1.9375 1.125 3 3 C3.5 6.4375 3.5 6.4375 3 10 C0.449054 12.84248268 -0.9896147 13.91018797 -4.8125 14.25 C-5.8953125 14.12625 -5.8953125 14.12625 -7 14 C-7 11 -7 11 -5 9 C-5.3185177 6.89179203 -5.3185177 6.89179203 -6 5 C-7.65 4.67 -9.3 4.34 -11 4 C-8.40658844 -1.74255417 -5.99557401 -1.26222611 0 0 Z " fill="#282627" transform="translate(265,154)"/>
<path d="M0 0 C1.5703125 1.86328125 1.5703125 1.86328125 3.125 4.3125 C3.90230469 5.51326172 3.90230469 5.51326172 4.6953125 6.73828125 C6 9 6 9 7 12 C5.35 12 3.7 12 2 12 C1.7525 11.21625 1.505 10.4325 1.25 9.625 C0.22729015 6.99015103 0.22729015 6.99015103 -1.625 5.6875 C-5.82222512 4.47251378 -10.15484899 4.51443395 -14.375 5.625 C-14.91125 5.74875 -15.4475 5.8725 -16 6 C-16.66 5.34 -17.32 4.68 -18 4 C-15.5636811 3.32873871 -13.12611117 2.66283646 -10.6875 2 C-9.65206055 1.71382812 -9.65206055 1.71382812 -8.59570312 1.421875 C-5.64212051 0.62283816 -3.07440781 0 0 0 Z " fill="#EDF9FD" transform="translate(152,152)"/>
<path d="M0 0 C2.20218226 1.76886877 2.9407663 2.71229347 3.51953125 5.5234375 C3.61621094 6.46445313 3.71289062 7.40546875 3.8125 8.375 C4.41854321 12.2577853 4.87742904 14.562379 7.9375 17.125 C10.88172166 19.08594243 10.88172166 19.08594243 14 20 C14 20.99 14 21.98 14 23 C8.77411192 22.68327951 5.4390165 19.69889181 2 16 C-0.25020192 12.606373 -0.21224788 9.76340269 -0.125 5.75 C-0.10695313 4.67234375 -0.08890625 3.5946875 -0.0703125 2.484375 C-0.04710937 1.66453125 -0.02390625 0.8446875 0 0 Z " fill="#636363" transform="translate(279,164)"/>
<path d="M0 0 C4.7643645 0.4203851 7.8022873 2.59094422 11 6 C13.89914347 10.44535331 14.31571333 13.73811115 14 19 C13.01 19 12.02 19 11 19 C10.90203125 18.40832031 10.8040625 17.81664062 10.703125 17.20703125 C9.75293772 12.18578296 8.84481229 8.62510873 5 5 C2.38181544 3.66701026 2.38181544 3.66701026 0 3 C0 2.01 0 1.02 0 0 Z " fill="#5E5E5E" transform="translate(229,139)"/>
<path d="M0 0 C-0.33 1.32 -0.66 2.64 -1 4 C-3.25 4.6875 -3.25 4.6875 -6 5 C-8.3125 3.5625 -8.3125 3.5625 -10 2 C-6.38026598 0.68373308 -3.90432869 0 0 0 Z " fill="#3C3839" transform="translate(309,130)"/>
<path d="M0 0 C2.64 0 5.28 0 8 0 C6.02 0.99 6.02 0.99 4 2 C6.97 2.495 6.97 2.495 10 3 C10 3.33 10 3.66 10 4 C6.04 4 2.08 4 -2 4 C-1.34 2.68 -0.68 1.36 0 0 Z " fill="#4E4B4B" transform="translate(229,125)"/>
<path d="M0 0 C2.1793144 1.75864246 2.93686419 2.69396 3.51171875 5.48046875 C3.56972656 6.37378906 3.62773437 7.26710937 3.6875 8.1875 C3.75324219 9.08855469 3.81898438 9.98960937 3.88671875 10.91796875 C3.92410156 11.60503906 3.96148437 12.29210937 4 13 C3.01 13.33 2.02 13.66 1 14 C-0.38226016 11.23547967 -0.09525387 8.9538637 -0.0625 5.875 C-0.05347656 4.77929688 -0.04445313 3.68359375 -0.03515625 2.5546875 C-0.02355469 1.71164063 -0.01195312 0.86859375 0 0 Z " fill="#747474" transform="translate(279,164)"/>
<path d="M0 0 C0.33 0.99 0.66 1.98 1 3 C-5.0546875 3.1953125 -5.0546875 3.1953125 -7 3 C-7.66 2.34 -8.32 1.68 -9 1 C-6.04335481 -0.4783226 -3.25770263 -0.06032783 0 0 Z " fill="#676767" transform="translate(298,153)"/>
<path d="M0 0 C0.66 0.33 1.32 0.66 2 1 C1.07038578 2.15224028 0.1309875 3.29659176 -0.8125 4.4375 C-1.59560547 5.39462891 -1.59560547 5.39462891 -2.39453125 6.37109375 C-4 8 -4 8 -7 9 C-5.44499019 5.18315774 -2.96404505 2.80804268 0 0 Z " fill="#80A981" transform="translate(470,46)"/>
<path d="M0 0 C0 0.99 0 1.98 0 3 C-5.75 2.25 -5.75 2.25 -8 0 C-4.71303767 -0.79953138 -3.28976808 -1.09658936 0 0 Z " fill="#393536" transform="translate(309,145)"/>
<path d="M0 0 C0.33 0 0.66 0 1 0 C1 2.31 1 4.62 1 7 C0.01 7 -0.98 7 -2 7 C-2 5.35 -2 3.7 -2 2 C-1.34 2 -0.68 2 0 2 C0 1.34 0 0.68 0 0 Z " fill="#666665" transform="translate(242,151)"/>
</svg>
