<?xml version="1.0" encoding="UTF-8"?>
<svg version="1.1" xmlns="http://www.w3.org/2000/svg" width="184" height="254">
<path d="M0 0 C5.83676533 4.4470593 9.74709232 11.51785143 10.9921875 18.75 C11.83200494 34.45093468 0.98252829 50.77222427 -7.0078125 63.75 C-5.72648437 64.04132813 -4.44515625 64.33265625 -3.125 64.6328125 C24.04835062 70.99135546 46.7024651 83.9434 62.1796875 107.9375 C74.69865072 129.18482402 79.10267126 154.64920505 73.4296875 178.875 C67.28945272 202.06272366 52.92670675 223.45096994 31.9921875 235.75 C9.84677715 248.28640901 -16.18885863 253.45026214 -41.2578125 246.75 C-65.13356555 239.74234473 -86.01092456 223.94682785 -98.0703125 202.05859375 C-108.92218978 181.66780693 -113.32225271 156.72633126 -107.4453125 134 C-106.6993492 131.56197359 -105.88644161 129.14341699 -105.0078125 126.75 C-104.65372314 125.77015137 -104.65372314 125.77015137 -104.29248047 124.77050781 C-95.40673658 100.78873869 -77.48455038 82.13496826 -54.3203125 71.4375 C-45.51420121 67.88060119 -36.24860258 65.85102471 -27.0078125 63.75 C-27.33990723 63.19763672 -27.67200195 62.64527344 -28.01416016 62.07617188 C-47.28659358 29.80169787 -47.28659358 29.80169787 -45.0078125 17.75 C-44.87246094 17.01652344 -44.73710938 16.28304688 -44.59765625 15.52734375 C-42.724351 8.29464866 -38.07668476 2.42088721 -31.84765625 -1.66796875 C-21.03829215 -7.26459278 -10.29741908 -6.41084456 0 0 Z " fill="#06A8E7" transform="translate(109.0078125,5.25)"/>
<path d="M0 0 C6.0545018 2.75204627 10.31605823 7.06413646 12.8125 13.3125 C13.05541992 16.24169922 13.05541992 16.24169922 13.04296875 19.6171875 C13.04103516 20.84050781 13.03910156 22.06382812 13.03710938 23.32421875 C13.01874023 25.23654297 13.01874023 25.23654297 13 27.1875 C12.99935547 28.45464844 12.99871094 29.72179687 12.99804688 31.02734375 C12.97174301 36.58622668 12.84760507 41.83702647 11.8125 47.3125 C12.9675 47.374375 14.1225 47.43625 15.3125 47.5 C20.39721035 48.20720443 24.07041257 49.74446315 27.8125 53.3125 C30.06820955 56.52318147 32.02194787 59.7407797 33.953125 63.15625 C35.69408867 66.33962381 35.69408867 66.33962381 38.046875 68.84375 C40.3067447 72.00356781 40.27614305 73.48507928 39.8125 77.3125 C39.17583081 79.88453085 38.48658041 82.35578914 37.6875 84.875 C37.22376805 86.37974923 36.76160178 87.88498162 36.30078125 89.390625 C36.05666504 90.18533203 35.81254883 90.98003906 35.56103516 91.79882812 C34.78259937 94.41290995 34.06239916 97.03759911 33.35546875 99.671875 C27.0318503 123.0931497 27.0318503 123.0931497 20.8125 129.3125 C16.30989193 130.15286889 12.83408601 129.99355734 9 127.4375 C2.93687732 118.77589617 1.85358532 109.58636831 0.8125 99.3125 C-0.6725 99.8075 -0.6725 99.8075 -2.1875 100.3125 C-7.00217441 100.99697714 -11.35984786 101.39287123 -15.65234375 98.85546875 C-18.79672202 96.15460134 -20.86114677 94.29155968 -22.1875 90.3125 C-22.28127689 88.48109259 -22.31742957 86.64630013 -22.3125 84.8125 C-22.31507812 83.8534375 -22.31765625 82.894375 -22.3203125 81.90625 C-22.1875 79.3125 -22.1875 79.3125 -21.1875 76.3125 C-21.8475 75.3225 -22.5075 74.3325 -23.1875 73.3125 C-23.97974668 67.61531431 -22.88512148 62.17018113 -21.4296875 56.671875 C-21.12357847 53.68978054 -22.06410925 52.07683554 -23.1875 49.3125 C-25.13274449 41.60484105 -25.52499118 33.97970734 -25.5 26.0625 C-25.51611328 25.02609375 -25.53222656 23.9896875 -25.54882812 22.921875 C-25.55319204 16.07925564 -25.17997461 10.7354466 -20.50390625 5.38671875 C-19.92511719 4.92910156 -19.34632812 4.47148438 -18.75 4 C-18.17378906 3.52949219 -17.59757812 3.05898437 -17.00390625 2.57421875 C-11.60419597 -1.17654775 -6.34610355 -1.99448969 0 0 Z " fill="#6FC574" transform="translate(98.1875,114.6875)"/>
<path d="M0 0 C19.69387759 4.35624942 38.31279072 19.57963471 49.27734375 36.1171875 C57.56815637 49.99160862 64.17919975 64.80165111 64.09765625 81.2734375 C64.09282227 83.00400391 64.09282227 83.00400391 64.08789062 84.76953125 C64.07532227 86.55423828 64.07532227 86.55423828 64.0625 88.375 C64.05798828 89.58800781 64.05347656 90.80101562 64.04882812 92.05078125 C64.03708354 95.03390507 64.0206584 98.01692679 64 101 C59.96970135 99.65656712 58.95427416 97.06098579 56.9375 93.5625 C54.33631237 89.01395032 54.33631237 89.01395032 51 85 C48.56747339 84.53837573 48.56747339 84.53837573 45.875 84.375 C44.96492188 84.30023438 44.05484375 84.22546875 43.1171875 84.1484375 C42.06917969 84.07496094 42.06917969 84.07496094 41 84 C41.44469329 89.03985731 43.71343362 91.37634988 47 95 C45.92333797 96.7541123 44.83836661 98.50312587 43.75 100.25 C43.14671875 101.22453125 42.5434375 102.1990625 41.921875 103.203125 C37.44100739 109.72406241 37.44100739 109.72406241 33.0625 110.5625 C27.17793593 109.4816617 24.05926026 104.05417285 20.6875 99.453125 C10.86703502 85.17707869 10.86703502 85.17707869 10 80 C13.19990508 77.25722422 16.00499382 75.3697164 20 74 C20.33425735 71.62625139 20.33425735 71.62625139 20 69 C17.80844025 66.55556797 16.36810681 66.05601625 13.125 65.5625 C9.23796821 66.10668445 7.23235513 67.82310777 4 70 C2.824375 70.04125 1.64875 70.0825 0.4375 70.125 C-3.11204485 70.62510723 -3.11204485 70.62510723 -4.5546875 73.27734375 C-5.81651692 75.81882505 -6.96047404 78.36046633 -8 81 C-8.33 81 -8.66 81 -9 81 C-9 74.07 -9 67.14 -9 60 C-7.22625 60.0825 -5.4525 60.165 -3.625 60.25 C1.84998337 60.26939191 5.8221424 59.2971612 10.74609375 56.97265625 C13.15222634 55.93430787 15.42181083 55.43197173 18 55 C17.278125 54.62488281 16.55625 54.24976563 15.8125 53.86328125 C14.884375 53.35152344 13.95625 52.83976562 13 52.3125 C12.071875 51.81363281 11.14375 51.31476563 10.1875 50.80078125 C8 49 8 49 7.5625 46.41796875 C8 44 8 44 10 42 C9.7845883 39.49521279 9.38019395 38.34726377 7.51171875 36.640625 C6.90972656 36.18171875 6.30773437 35.7228125 5.6875 35.25 C0.87025882 30.7190293 0.11463822 25.07298364 -1.17578125 18.83984375 C-1.90577129 15.43898968 -2.87044433 12.28292137 -4 9 C-4.375 6.375 -4.375 6.375 -4 4 C-2 1.6875 -2 1.6875 0 0 Z " fill="#70C575" transform="translate(120,74)"/>
<path d="M0 0 C5.83676533 4.4470593 9.74709232 11.51785143 10.9921875 18.75 C12.08250559 39.13420779 -4.94183532 60.83552766 -16.0078125 76.75 C-19.76330792 75.49816819 -20.16884864 74.33090972 -22.1953125 71 C-22.80890625 69.99839844 -23.4225 68.99679688 -24.0546875 67.96484375 C-24.69921875 66.90394531 -25.34375 65.84304687 -26.0078125 64.75 C-26.65234375 63.74066406 -27.296875 62.73132813 -27.9609375 61.69140625 C-47.3697695 31.08811012 -47.3697695 31.08811012 -44.609375 15.5 C-42.67996991 8.28352383 -38.08387831 2.4256092 -31.84765625 -1.66796875 C-21.03829215 -7.26459278 -10.29741908 -6.41084456 0 0 Z " fill="#FE3939" transform="translate(109.0078125,5.25)"/>
<path d="M0 0 C6.08623969 2.76647259 10.25439521 7.06417511 12.8125 13.3125 C14.28577175 25.83307765 14.22721108 39.73108861 10.1875 51.75 C9.95224609 52.45721191 9.71699219 53.16442383 9.47460938 53.89306641 C7.34639309 59.40547316 4.07893045 62.67928478 -1.1875 65.3125 C-5.6707788 65.89986157 -10.14744271 66.25435127 -14.328125 64.32421875 C-22.28385257 58.18447247 -23.92032296 47.72419016 -25.1875 38.3125 C-25.46706002 34.22405843 -25.51293217 30.15941102 -25.5 26.0625 C-25.51611328 25.02609375 -25.53222656 23.9896875 -25.54882812 22.921875 C-25.55319204 16.07925564 -25.17997461 10.7354466 -20.50390625 5.38671875 C-19.92511719 4.92910156 -19.34632812 4.47148438 -18.75 4 C-18.17378906 3.52949219 -17.59757812 3.05898437 -17.00390625 2.57421875 C-11.60419597 -1.17654775 -6.34610355 -1.99448969 0 0 Z " fill="#FCFEFD" transform="translate(98.1875,114.6875)"/>
<path d="M0 0 C9.32283079 5.72228924 15.18326803 12.55570159 20.8671875 21.80859375 C22.87448422 24.82510235 22.87448422 24.82510235 25.96484375 27.08984375 C29.44602498 30.09838419 30.95799629 32.77907676 32.76953125 36.92578125 C33.06722412 37.59472412 33.36491699 38.26366699 33.67163086 38.95288086 C38.01136283 49.08382994 36.80444395 56.94246611 34.95703125 67.67578125 C30.52966062 67.08601893 27.07543469 65.33391409 23.26953125 63.11328125 C22.65303711 62.75540527 22.03654297 62.3975293 21.40136719 62.02880859 C0.42107779 49.57483025 -15.71863759 29.39202309 -22.04296875 5.67578125 C-22.04296875 4.35578125 -22.04296875 3.03578125 -22.04296875 1.67578125 C-15.56268382 -2.7678427 -7.15100594 -3.11192685 0 0 Z " fill="#71C576" transform="translate(24.04296875,180.32421875)"/>
<path d="M0 0 C3.83084349 2.61193874 6.65161815 5.67823629 8.75 9.875 C9.36136651 15.78487623 8.67098356 19.29470657 5.21875 24.17578125 C1.61158761 28.34896115 -2.33338573 29.10532159 -7.625 29.5 C-13.16305131 29.37138405 -15.89561408 27.4893716 -19.7890625 23.69921875 C-22.90391752 19.80981422 -22.64174605 15.37346545 -22.59765625 10.60546875 C-21.93084738 5.36839687 -18.94618709 3.28848925 -15 0 C-9.90560267 -2.08407163 -5.151049 -1.78305542 0 0 Z " fill="#FAFDFC" transform="translate(98.25,186.125)"/>
<path d="M0 0 C4.32625381 2.20394062 7.64014223 4.73410327 10 9 C10.83209813 13.62675256 11.08673654 17.96733331 8.82421875 22.19921875 C5.00461752 26.90709933 1.59724664 28.716664 -4.4375 29.375 C-9.6963557 28.82143624 -13.64792236 26.0577782 -17 22 C-18.87664991 16.37005027 -18.93749151 10.90970492 -16.3125 5.5625 C-11.48197366 0.2097546 -7.06675949 -1.12368967 0 0 Z " fill="#FFFAFA" transform="translate(96,12)"/>
<path d="M0 0 C2.33333333 0.33333333 4.66666667 0.66666667 7 1 C8.27875 1.165 9.5575 1.33 10.875 1.5 C14 2 14 2 15 3 C15.41277191 6.63239284 15.31978345 8.48342673 13.375 11.625 C10.76959467 14.23040533 8.13972517 16.07771928 5 18 C4.195625 18.53625 3.39125 19.0725 2.5625 19.625 C0 21 0 21 -3.4375 21.875 C-6.65165253 22.88999553 -7.79395296 23.45303556 -10.1875 25.5625 C-13.88785047 28.7694704 -13.88785047 28.7694704 -17 29 C-19.32673396 26.67326604 -18.47862517 21.14275376 -18.625 18 C-18.6765625 17.05898437 -18.728125 16.11796875 -18.78125 15.1484375 C-18.82507812 14.25382812 -18.86890625 13.35921875 -18.9140625 12.4375 C-18.9548291 11.61121094 -18.9955957 10.78492187 -19.03759766 9.93359375 C-19 8 -19 8 -18 7 C-16.58776052 6.81617544 -15.16948956 6.67765727 -13.75 6.5625 C-10.15528895 6.20873479 -7.32058898 5.46496573 -4 4 C-3.01 4 -2.02 4 -1 4 C-0.67 2.68 -0.34 1.36 0 0 Z " fill="#6DC475" transform="translate(51,102)"/>
<path d="M0 0 C-3.43698069 7.85078748 -10.39094047 13.81952682 -17.28515625 18.625 C-19.81479526 20.65332103 -21.27332808 23.28665841 -23 26 C-26.41457004 28.59036348 -29.83282171 28.43108741 -34 28 C-37.3125 26.4375 -37.3125 26.4375 -40 24 C-40.73915176 21.68860571 -41.41467152 19.35505402 -42 17 C-30.17654504 8.80191875 -15.019051 -0.93869069 0 0 Z " fill="#72C67A" transform="translate(78,71)"/>
<path d="M0 0 C0.66 0 1.32 0 2 0 C2.24954942 2.89537458 2.47522263 5.78935524 2.6875 8.6875 C2.76033203 9.50412109 2.83316406 10.32074219 2.90820312 11.16210938 C3.24903894 16.11425321 3.08438444 18.88499799 0 23 C-0.52679577 24.23894561 -1.03095916 25.48805678 -1.5 26.75 C-2.2425 28.35875 -2.2425 28.35875 -3 30 C-3.99 30.33 -4.98 30.66 -6 31 C-6.58692958 32.84525983 -6.58692958 32.84525983 -6.8125 35.0625 C-8.08855047 41.74049744 -11.81306769 46.01187971 -16.75 50.5 C-19 52 -19 52 -21 52 C-20.2392188 33.36086062 -12.60586185 13.9670582 0 0 Z " fill="#74C77A" transform="translate(21,102)"/>
<path d="M0 0 C0.66 5.61 1.32 11.22 2 17 C-2 16 -2 16 -3.75 14.4375 C-5.53468481 10.95736463 -5.73868724 7.83488692 -5 4 C-1.9 0 -1.9 0 0 0 Z " fill="#70C680" transform="translate(73,145)"/>
<path d="M0 0 C-0.61538462 5.53846154 -0.61538462 5.53846154 -2.5625 7.875 C-3.2740625 8.431875 -3.2740625 8.431875 -4 9 C-6.475 8.01 -6.475 8.01 -9 7 C-8.62607279 4.28902773 -8.18642373 3.17999533 -6.1875 1.25 C-4 0 -4 0 0 0 Z " fill="#69C379" transform="translate(62,124)"/>
<path d="M0 0 C0.66 0 1.32 0 2 0 C1.60196439 2.88575819 1.20990931 3.82189513 -1.0625 5.75 C-1.701875 6.1625 -2.34125 6.575 -3 7 C-2.38722388 4.03824877 -1.74627478 2.61941217 0 0 Z " fill="#7DCB90" transform="translate(21,102)"/>
</svg>
