<svg width="300" height="300" viewBox="0 0 300 300" fill="none" xmlns="http://www.w3.org/2000/svg">
  <!-- Globe -->
  <circle cx="150" cy="150" r="90" fill="#0EA5E9"/>
  
  <!-- Continents on globe -->
  <path d="M 110 130 Q 100 125 95 135 Q 92 145 100 155 Q 110 165 120 155 Q 130 145 125 135 Q 120 128 110 130 Z" fill="#4ADE80"/>
  <path d="M 170 120 Q 165 115 160 120 Q 155 130 160 142 Q 165 155 180 160 Q 195 163 205 155 Q 212 145 210 135 Q 205 125 195 123 Q 185 122 170 120 Z" fill="#4ADE80"/>
  <path d="M 100 170 Q 95 175 95 185 Q 97 197 105 205 Q 115 210 125 205 Q 132 198 130 188 Q 127 180 120 175 Q 112 172 100 170 Z" fill="#4ADE80"/>
  <path d="M 190 175 Q 188 180 190 188 Q 193 195 200 198 Q 207 200 213 196 Q 218 190 216 183 Q 214 177 208 175 Q 202 174 190 175 Z" fill="#4ADE80"/>
  
  <!-- Large white exclamation mark -->
  <rect x="140" y="100" width="20" height="65" rx="10" fill="white"/>
  <circle cx="150" cy="185" r="13" fill="white"/>
</svg>
