<?xml version="1.0" encoding="UTF-8"?>
<svg version="1.1" xmlns="http://www.w3.org/2000/svg" width="342" height="324">
<path d="M0 0 C0.84498047 0.80050781 0.84498047 0.80050781 1.70703125 1.6171875 C2.26003906 2.13023438 2.81304687 2.64328125 3.3828125 3.171875 C9.23004299 9.23674434 11.93333866 16.94120266 11.95703125 25.3046875 C11.89438832 26.74323766 11.81913439 28.18164454 11.70703125 29.6171875 C12.33867187 29.68035156 12.9703125 29.74351563 13.62109375 29.80859375 C22.04567494 30.96181452 32.34541491 33.90164525 38.34375 40.38671875 C39.6398285 42.65613684 40.50437875 45.05348744 41.38671875 47.5078125 C42.318225 49.61922666 43.05355925 50.98902374 44.70703125 52.6171875 C49.25651617 54.36797243 53.95131241 55.17458639 58.75 55.9453125 C66.77065517 58.69891068 73.13840113 66.64559633 77.39453125 73.640625 C78.86278388 76.97041222 79.2519814 79.89241817 79.70703125 83.4921875 C80.17783822 86.81053957 80.17783822 86.81053957 81.70703125 89.6171875 C85.35196806 91.60410608 88.83910682 92.59651624 92.83984375 93.60546875 C104.3001384 96.60366705 110.01616861 103.68852405 115.8671875 113.578125 C119.30278682 120.89675054 119.09843621 130.54964701 116.53515625 138.04296875 C114.36591254 142.53240869 112.23339131 146.27046007 108.58203125 149.6796875 C107.96328125 150.6490625 107.34453125 151.6184375 106.70703125 152.6171875 C107.39703655 155.43741051 108.48397855 157.95052044 109.62890625 160.6171875 C112.14796916 167.62675387 111.48327748 175.56175331 108.80859375 182.4609375 C103.449861 192.95037182 94.65413069 199.71153281 83.70703125 203.6171875 C72.86047426 207.03220365 62.43231287 206.09135005 51.70703125 202.6171875 C51.01480469 202.23304688 50.32257813 201.84890625 49.609375 201.453125 C47.75857698 200.46414362 47.75857698 200.46414362 45.78515625 200.75 C42.97473083 201.92277151 40.85621021 203.62082791 38.45703125 205.4921875 C33.22525837 209.39503411 28.44487665 212.6171875 21.70703125 212.6171875 C21.70703125 213.2771875 21.70703125 213.9371875 21.70703125 214.6171875 C11.86960109 214.95425681 3.20316423 214.63868436 -6.29296875 211.6171875 C-6.75445312 212.25785156 -7.2159375 212.89851562 -7.69140625 213.55859375 C-15.74664324 224.24053846 -25.35052151 231.0893086 -38.75 233.1484375 C-47.7055193 234.00226816 -55.27605792 233.29557605 -63.60546875 229.9296875 C-68.031777 228.30706469 -68.031777 228.30706469 -72.29296875 229.6171875 C-73.33247081 230.51262814 -74.35093803 231.43268416 -75.35546875 232.3671875 C-82.98736581 239.31438482 -95.11549289 243.17944301 -105.35546875 242.9296875 C-119.57039026 241.41746181 -130.7076759 236.37743941 -139.89453125 225.375 C-140.58675781 224.50488281 -140.58675781 224.50488281 -141.29296875 223.6171875 C-141.86144531 223.74996094 -142.42992187 223.88273438 -143.015625 224.01953125 C-157.87056086 227.41707084 -172.6944288 228.45206395 -186.23828125 220.04296875 C-186.91632813 219.57246094 -187.594375 219.10195313 -188.29296875 218.6171875 C-188.99164063 218.13636719 -189.6903125 217.65554688 -190.41015625 217.16015625 C-197.17777665 211.91205817 -200.62211247 204.62975635 -203.29296875 196.6171875 C-203.81074078 189.38042031 -203.00007481 182.64375797 -201.29296875 175.6171875 C-202.2365625 175.12412109 -202.2365625 175.12412109 -203.19921875 174.62109375 C-212.65202245 169.36795434 -219.37859208 163.02207007 -222.66796875 152.5078125 C-224.85079238 142.41225319 -223.18152642 134.23600906 -218.0078125 125.4296875 C-212.48520799 117.30730538 -203.69268345 112.13022176 -194.29296875 109.6171875 C-188.66195737 108.65471087 -182.98052439 108.11864252 -177.29296875 107.6171875 C-177.10927734 106.33908203 -177.10927734 106.33908203 -176.921875 105.03515625 C-176.06785209 100.39372737 -174.58586094 96.02621785 -173.1328125 91.54296875 C-172.15501507 88.6439177 -172.15501507 88.6439177 -172.29296875 85.6171875 C-173.73720789 83.55313098 -173.73720789 83.55313098 -175.60546875 81.4296875 C-182.32686284 72.93950549 -183.37866342 65.44973654 -182.29296875 54.6171875 C-179.76132557 44.20455342 -172.85681997 35.82068397 -164.29296875 29.6171875 C-161.04925668 27.71916403 -157.75933868 26.06784702 -154.29296875 24.6171875 C-153.40609375 24.23949219 -152.51921875 23.86179688 -151.60546875 23.47265625 C-147.91913528 22.52064324 -144.8377691 22.59021541 -141.06079102 22.69750977 C-132.69560219 23.02640758 -132.69560219 23.02640758 -125.6640625 19.23828125 C-124.44006897 17.16833108 -123.28861786 15.05404521 -122.20703125 12.90625 C-119.91191463 8.96239655 -117.34862997 6.74477587 -113.73046875 4.0546875 C-112.67730469 3.26964844 -111.62414062 2.48460937 -110.5390625 1.67578125 C-104.5689513 -2.11031815 -99.03743036 -3.93327992 -92.10546875 -4.6953125 C-91.36369385 -4.77797363 -90.62191895 -4.86063477 -89.85766602 -4.94580078 C-80.16736699 -5.86489796 -71.66868861 -4.44426902 -63.29296875 0.6171875 C-62.39449219 1.15472656 -61.49601563 1.69226563 -60.5703125 2.24609375 C-59.44302734 2.92478516 -59.44302734 2.92478516 -58.29296875 3.6171875 C-57.27589844 2.92882812 -57.27589844 2.92882812 -56.23828125 2.2265625 C-39.35085896 -8.90697352 -17.12786321 -14.49558108 0 0 Z " fill="#9C9C9C" transform="translate(223.29296875,40.3828125)"/>
<path d="M0 0 C1.92578125 1.40234375 1.92578125 1.40234375 3.92578125 3.40234375 C8.08709776 3.05496429 11.33181066 1.32534219 14.98828125 -0.59765625 C21.74519971 -4.14226921 26.65512718 -4.77936222 34.17578125 -4.78515625 C34.99691406 -4.79740234 35.81804687 -4.80964844 36.6640625 -4.82226562 C42.10659109 -4.83520349 46.69644783 -4.10698103 51.92578125 -2.59765625 C52.60825928 -2.44562744 53.2907373 -2.29359863 53.99389648 -2.13696289 C61.97144425 0.09005632 68.50250571 8.66964552 72.61328125 15.42578125 C74.08153388 18.75556847 74.4707314 21.67757442 74.92578125 25.27734375 C75.39658822 28.59569582 75.39658822 28.59569582 76.92578125 31.40234375 C80.57071806 33.38926233 84.05785682 34.38167249 88.05859375 35.390625 C99.5188884 38.3888233 105.23491861 45.4736803 111.0859375 55.36328125 C114.52153682 62.68190679 114.31718621 72.33480326 111.75390625 79.828125 C109.58466254 84.31756494 107.45214131 88.05561632 103.80078125 91.46484375 C102.87265625 92.91890625 102.87265625 92.91890625 101.92578125 94.40234375 C102.61578655 97.22256676 103.70272855 99.73567669 104.84765625 102.40234375 C107.36671916 109.41191012 106.70202748 117.34690956 104.02734375 124.24609375 C98.668611 134.73552807 89.87288069 141.49668906 78.92578125 145.40234375 C68.07922426 148.8173599 57.65106287 147.8765063 46.92578125 144.40234375 C46.23355469 144.01820313 45.54132813 143.6340625 44.828125 143.23828125 C42.97732698 142.24929987 42.97732698 142.24929987 41.00390625 142.53515625 C38.19348083 143.70792776 36.07496021 145.40598416 33.67578125 147.27734375 C28.44400837 151.18019036 23.66362665 154.40234375 16.92578125 154.40234375 C16.92578125 155.06234375 16.92578125 155.72234375 16.92578125 156.40234375 C7.08835109 156.73941306 -1.57808577 156.42384061 -11.07421875 153.40234375 C-11.07421875 152.74234375 -11.07421875 152.08234375 -11.07421875 151.40234375 C-11.87859375 151.38171875 -12.68296875 151.36109375 -13.51171875 151.33984375 C-21.47962905 149.24302525 -26.79934909 143.15939579 -31.07421875 136.40234375 C-31.97539429 136.71957397 -31.97539429 136.71957397 -32.89477539 137.04321289 C-39.21707284 139.12417776 -44.87174471 139.91754362 -51.51171875 139.83984375 C-52.43186768 139.83154541 -53.3520166 139.82324707 -54.30004883 139.81469727 C-61.18725675 139.64341614 -66.98572072 138.81636012 -73.07421875 135.40234375 C-73.94175781 134.91636719 -74.80929688 134.43039063 -75.703125 133.9296875 C-83.29862763 129.14146453 -89.46872969 122.13258433 -92.07421875 113.40234375 C-92.32847281 110.3762075 -92.30825567 107.37454112 -92.26171875 104.33984375 C-92.26107422 103.53740234 -92.26042969 102.73496094 -92.25976562 101.90820312 C-92.21525043 95.94811317 -92.21525043 95.94811317 -91.5246582 93.27563477 C-90.8973035 91.35147268 -90.8973035 91.35147268 -91.69921875 89.27734375 C-92.93648151 87.23497601 -92.93648151 87.23497601 -95.19921875 86.58984375 C-98.89690559 85.06253832 -101.23420483 82.69946592 -104.109375 79.9609375 C-106.14764593 78.34409833 -107.53389939 77.81535781 -110.07421875 77.40234375 C-110.14769531 76.53222656 -110.14769531 76.53222656 -110.22265625 75.64453125 C-110.56574426 72.05985306 -110.93105655 68.83183036 -112.07421875 65.40234375 C-114.71678856 57.47463431 -114.32772851 52.07465495 -110.78515625 44.40234375 C-106.03600814 36.07507035 -99.79873712 30.27463904 -91.07421875 26.40234375 C-89.89859375 25.82484375 -88.72296875 25.24734375 -87.51171875 24.65234375 C-81.11003203 22.3351688 -73.80622795 22.63927126 -67.07421875 22.40234375 C-66.92210937 21.46648437 -66.77 20.530625 -66.61328125 19.56640625 C-66.28270251 17.62605275 -65.90512032 15.69213036 -65.44921875 13.77734375 C-64.91570758 11.41861744 -64.91570758 11.41861744 -65.63671875 9.21484375 C-65.78109375 8.61671875 -65.92546875 8.01859375 -66.07421875 7.40234375 C-65.41421875 6.74234375 -64.75421875 6.08234375 -64.07421875 5.40234375 C-63.35234375 5.48484375 -62.63046875 5.56734375 -61.88671875 5.65234375 C-58.65796069 5.36534303 -58.18420388 4.84435237 -55.88671875 2.71484375 C-40.60085928 -11.37212478 -16.89526603 -10.86716784 0 0 Z " fill="#525252" transform="translate(228.07421875,98.59765625)"/>
<path d="M0 0 C0.66 0 1.32 0 2 0 C2.10957031 0.64066406 2.21914063 1.28132812 2.33203125 1.94140625 C4.42392389 13.35327586 8.50572173 21.13969435 17.86328125 28.45703125 C24.39679516 32.46725703 30.66281744 33.20568444 38.05322266 32.51391602 C42.1159376 32.1794778 46.02976397 31.94251596 50 33 C53.05421393 35.99224438 54.501689 38.8019878 56.32421875 42.65234375 C59.62497725 49.24616668 65.24521602 52.59739782 72.0625 54.9375 C73.36972306 55.31067308 74.68059618 55.67248841 76 56 C76.99 55.01 76.99 55.01 78 54 C80.125 54.375 80.125 54.375 82 55 C82 55.66 82 56.32 82 57 C84.31 57.33 86.62 57.66 89 58 C89.33 56.68 89.66 55.36 90 54 C90.01417969 54.89460938 90.02835938 55.78921875 90.04296875 56.7109375 C90.46601136 67.43563927 92.87415634 74.90597106 100 83 C102.46161213 84.96114096 102.46161213 84.96114096 105.1875 86.625 C106.50814453 87.47964844 106.50814453 87.47964844 107.85546875 88.3515625 C115.34775113 92.27919376 122.02074885 93.48582774 130.4375 93.375 C131.75331055 93.39240234 131.75331055 93.39240234 133.09570312 93.41015625 C139.4951318 93.38186106 144.9793684 92.13178433 151 90 C151.4846875 90.66386719 151.969375 91.32773438 152.46875 92.01171875 C157.92174928 99.19499665 163.04434895 103.05737647 171 107 C163.68299638 118.69308939 155.4585039 125.34741054 142 129 C131.97041896 130.66796293 123.09822164 130.11534282 113.6875 126.3125 C109.26119175 124.68987719 109.26119175 124.68987719 105 126 C103.96049794 126.89544064 102.94203072 127.81549666 101.9375 128.75 C94.30560294 135.69719732 82.17747586 139.56225551 71.9375 139.3125 C57.72257849 137.80027431 46.58529285 132.76025191 37.3984375 121.7578125 C36.70621094 120.88769531 36.70621094 120.88769531 36 120 C35.43152344 120.13277344 34.86304687 120.26554687 34.27734375 120.40234375 C19.42240789 123.79988334 4.59853995 124.83487645 -8.9453125 116.42578125 C-9.96238281 115.72001953 -9.96238281 115.72001953 -11 115 C-11.69867188 114.51917969 -12.39734375 114.03835938 -13.1171875 113.54296875 C-19.8848079 108.29487067 -23.32914372 101.01256885 -26 93 C-26.51777203 85.76323281 -25.70710606 79.02657047 -24 72 C-24.6290625 71.67128906 -25.258125 71.34257812 -25.90625 71.00390625 C-35.3590537 65.75076684 -42.08562333 59.40488257 -45.375 48.890625 C-47.55782363 38.79506569 -45.88855767 30.61882156 -40.71484375 21.8125 C-35.19223924 13.69011788 -26.3997147 8.51303426 -17 6 C-11.36898862 5.03752337 -5.68755564 4.50145502 0 4 C0 2.68 0 1.36 0 0 Z " fill="#817F7F" transform="translate(46,144)"/>
<path d="M0 0 C0.38218767 1.65614657 0.71395102 3.32457024 1 5 C0 6 0 6 -2.5 6.125 C-5 6 -5 6 -6 5 C-6.04063832 3.33382885 -6.042721 1.66611905 -6 0 C-3.50907189 -1.24546405 -2.58919267 -0.7767578 0 0 Z " fill="#404040" transform="translate(195,273)"/>
<path d="M0 0 C1.67542976 0.28604898 3.34385343 0.61781233 5 1 C5.625 2.875 5.625 2.875 6 5 C5.34 5.66 4.68 6.32 4 7 C1.375 6.625 1.375 6.625 -1 6 C-1.042721 4.33388095 -1.04063832 2.66617115 -1 1 C-0.67 0.67 -0.34 0.34 0 0 Z " fill="#414141" transform="translate(239,261)"/>
<path d="M0 0 C2.0625 0.4375 2.0625 0.4375 4 1 C4.33 2.65 4.66 4.3 5 6 C2.625 6.625 2.625 6.625 0 7 C-0.66 6.34 -1.32 5.68 -2 5 C-1.46428571 1.46428571 -1.46428571 1.46428571 0 0 Z " fill="#0E0E0E" transform="translate(164,104)"/>
<path d="M0 0 C1.2065625 0.0309375 1.2065625 0.0309375 2.4375 0.0625 C2.81968767 1.71864657 3.15145102 3.38707024 3.4375 5.0625 C2.4375 6.0625 2.4375 6.0625 -0.125 6.125 C-1.3315625 6.0940625 -1.3315625 6.0940625 -2.5625 6.0625 C-2.94468767 4.40635343 -3.27645102 2.73792976 -3.5625 1.0625 C-2.5625 0.0625 -2.5625 0.0625 0 0 Z " fill="#090909" transform="translate(181.5625,131.9375)"/>
<path d="M0 0 C1.65 0.33 3.3 0.66 5 1 C5.33 1.99 5.66 2.98 6 4 C5.01 4.99 4.02 5.98 3 7 C1.68 6.34 0.36 5.68 -1 5 C-0.67 3.35 -0.34 1.7 0 0 Z " fill="#484848" transform="translate(173,297)"/>
<path d="M0 0 C1.32 0.33 2.64 0.66 4 1 C4.5625 2.9375 4.5625 2.9375 5 5 C4 6 4 6 1.4375 6.0625 C0.2309375 6.0315625 0.2309375 6.0315625 -1 6 C-1.33 5.01 -1.66 4.02 -2 3 C-1.34 2.01 -0.68 1.02 0 0 Z " fill="#4A4A4A" transform="translate(141,296)"/>
<path d="M0 0 C1.65 0.33 3.3 0.66 5 1 C4.67 2.65 4.34 4.3 4 6 C2.35 5.67 0.7 5.34 -1 5 C-0.67 3.35 -0.34 1.7 0 0 Z " fill="#030303" transform="translate(128,136)"/>
<path d="M0 0 C1.65 0.33 3.3 0.66 5 1 C4.67 2.65 4.34 4.3 4 6 C2.35 5.67 0.7 5.34 -1 5 C-0.67 3.35 -0.34 1.7 0 0 Z " fill="#111111" transform="translate(105,123)"/>
<path d="M0 0 C1.65 0.33 3.3 0.66 5 1 C4.67 2.65 4.34 4.3 4 6 C2.35 5.67 0.7 5.34 -1 5 C-0.67 3.35 -0.34 1.7 0 0 Z " fill="#313131" transform="translate(131,29)"/>
<path d="M0 0 C2.0625 0.4375 2.0625 0.4375 4 1 C4.33 2.32 4.66 3.64 5 5 C3.35 5.33 1.7 5.66 0 6 C-0.38218767 4.34385343 -0.71395102 2.67542976 -1 1 C-0.67 0.67 -0.34 0.34 0 0 Z " fill="#565656" transform="translate(216,287)"/>
<path d="M0 0 C1.67542976 0.28604898 3.34385343 0.61781233 5 1 C4.67 2.32 4.34 3.64 4 5 C2.68 5.33 1.36 5.66 0 6 C-0.38218767 4.34385343 -0.71395102 2.67542976 -1 1 C-0.67 0.67 -0.34 0.34 0 0 Z " fill="#0C0B0B" transform="translate(196,251)"/>
<path d="M0 0 C1.67542976 0.28604898 3.34385343 0.61781233 5 1 C4.67 2.65 4.34 4.3 4 6 C2.68 5.67 1.36 5.34 0 5 C-0.5625 3.0625 -0.5625 3.0625 -1 1 C-0.67 0.67 -0.34 0.34 0 0 Z " fill="#080808" transform="translate(248,130)"/>
<path d="M0 0 C1.98 0.495 1.98 0.495 4 1 C4 2.65 4 4.3 4 6 C2.68 6.33 1.36 6.66 0 7 C-1.125 2.25 -1.125 2.25 0 0 Z " fill="#222222" transform="translate(280,96)"/>
<path d="M0 0 C2.0625 0.4375 2.0625 0.4375 4 1 C3.67 2.65 3.34 4.3 3 6 C1.68 5.67 0.36 5.34 -1 5 C-1 1 -1 1 0 0 Z " fill="#0F0F0F" transform="translate(110,261)"/>
<path d="M0 0 C2.0625 0.4375 2.0625 0.4375 4 1 C4 2.32 4 3.64 4 5 C2.68 5.33 1.36 5.66 0 6 C-0.38218767 4.34385343 -0.71395102 2.67542976 -1 1 C-0.67 0.67 -0.34 0.34 0 0 Z " fill="#0B0B0B" transform="translate(163,257)"/>
<path d="M0 0 C2.0625 0.4375 2.0625 0.4375 4 1 C4 2.32 4 3.64 4 5 C2.68 5.33 1.36 5.66 0 6 C-0.38218767 4.34385343 -0.71395102 2.67542976 -1 1 C-0.67 0.67 -0.34 0.34 0 0 Z " fill="#505050" transform="translate(186,12)"/>
<path d="M0 0 C1.65 0.33 3.3 0.66 5 1 C4.67 2.32 4.34 3.64 4 5 C2.35 5 0.7 5 -1 5 C-0.67 3.35 -0.34 1.7 0 0 Z " fill="#070707" transform="translate(136,152)"/>
<path d="M0 0 C1.65 0.33 3.3 0.66 5 1 C4.67 2.32 4.34 3.64 4 5 C2.35 4.67 0.7 4.34 -1 4 C-0.67 2.68 -0.34 1.36 0 0 Z " fill="#0B0B0B" transform="translate(136,184)"/>
<path d="M0 0 C1.65 0.33 3.3 0.66 5 1 C4.67 2.32 4.34 3.64 4 5 C2.68 5 1.36 5 0 5 C-0.33 4.01 -0.66 3.02 -1 2 C-0.67 1.34 -0.34 0.68 0 0 Z " fill="#5C5C5C" transform="translate(258,34)"/>
<path d="M0 0 C1.98 0.495 1.98 0.495 4 1 C4 2.32 4 3.64 4 5 C2.35 5 0.7 5 -1 5 C-0.67 3.35 -0.34 1.7 0 0 Z " fill="#0B0B0B" transform="translate(241,249)"/>
<path d="M0 0 C2.475 0.495 2.475 0.495 5 1 C4.67 2.32 4.34 3.64 4 5 C2.68 4.67 1.36 4.34 0 4 C0 2.68 0 1.36 0 0 Z " fill="#0C0C0C" transform="translate(127,96)"/>
<path d="M0 0 C1.98 0.495 1.98 0.495 4 1 C3.67 2.32 3.34 3.64 3 5 C1.68 5 0.36 5 -1 5 C-0.67 3.35 -0.34 1.7 0 0 Z " fill="#060606" transform="translate(172,90)"/>
<path d="M0 0 C1.98 0.495 1.98 0.495 4 1 C4 2.32 4 3.64 4 5 C2.35 4.67 0.7 4.34 -1 4 C-0.67 2.68 -0.34 1.36 0 0 Z " fill="#060606" transform="translate(80,65)"/>
<path d="M0 0 C1.98 0.495 1.98 0.495 4 1 C3.67 2.32 3.34 3.64 3 5 C1.68 4.67 0.36 4.34 -1 4 C-0.67 2.68 -0.34 1.36 0 0 Z " fill="#555555" transform="translate(265,302)"/>
<path d="M0 0 C1.98 0.495 1.98 0.495 4 1 C3.67 2.32 3.34 3.64 3 5 C1.68 4.67 0.36 4.34 -1 4 C-0.67 2.68 -0.34 1.36 0 0 Z " fill="#0E0E0E" transform="translate(246,155)"/>
<path d="M0 0 C0.99 0.33 1.98 0.66 3 1 C3 2.32 3 3.64 3 5 C1.35 4.67 -0.3 4.34 -2 4 C-1.34 2.68 -0.68 1.36 0 0 Z " fill="#545454" transform="translate(217,261)"/>
<path d="M0 0 C0.99 0.33 1.98 0.66 3 1 C3 2.32 3 3.64 3 5 C1.35 4.67 -0.3 4.34 -2 4 C-1.34 2.68 -0.68 1.36 0 0 Z " fill="#0F0F0F" transform="translate(104,197)"/>
<path d="M0 0 C1.98 0.495 1.98 0.495 4 1 C3.34 2.32 2.68 3.64 2 5 C1.01 4.67 0.02 4.34 -1 4 C-0.67 2.68 -0.34 1.36 0 0 Z " fill="#0A0A0A" transform="translate(163,128)"/>
<path d="M0 0 C0.99 0.33 1.98 0.66 3 1 C3 2.32 3 3.64 3 5 C1.68 5 0.36 5 -1 5 C-0.67 3.35 -0.34 1.7 0 0 Z " fill="#090909" transform="translate(164,148)"/>
<path d="M0 0 C1.98 0.495 1.98 0.495 4 1 C4 1.99 4 2.98 4 4 C2.35 3.67 0.7 3.34 -1 3 C-0.67 2.01 -0.34 1.02 0 0 Z " fill="#121212" transform="translate(184,60)"/>
<path d="M0 0 C2.0625 0.4375 2.0625 0.4375 4 1 C3.67 1.99 3.34 2.98 3 4 C2.01 4 1.02 4 0 4 C-0.33 3.01 -0.66 2.02 -1 1 C-0.67 0.67 -0.34 0.34 0 0 Z " fill="#5B5B5B" transform="translate(181,320)"/>
<path d="M0 0 C1.32 0.33 2.64 0.66 4 1 C4 1.99 4 2.98 4 4 C2.68 4 1.36 4 0 4 C0 2.68 0 1.36 0 0 Z " fill="#575757" transform="translate(228,27)"/>
<path d="M0 0 C1.32 0 2.64 0 4 0 C3.67 1.32 3.34 2.64 3 4 C2.01 3.67 1.02 3.34 0 3 C0 2.01 0 1.02 0 0 Z " fill="#5F5F5F" transform="translate(240,283)"/>
<path d="M0 0 C0.99 0.33 1.98 0.66 3 1 C2.67 1.99 2.34 2.98 2 4 C1.01 3.67 0.02 3.34 -1 3 C-0.67 2.01 -0.34 1.02 0 0 Z " fill="#7C7C7C" transform="translate(225,319)"/>
<path d="M0 0 C0.99 0 1.98 0 3 0 C3 0.99 3 1.98 3 3 C1.68 2.67 0.36 2.34 -1 2 C-0.67 1.34 -0.34 0.68 0 0 Z " fill="#696969" transform="translate(115,296)"/>
<path d="M0 0 C0.66 0.33 1.32 0.66 2 1 C2 1.99 2 2.98 2 4 C1.01 4 0.02 4 -1 4 C-0.67 2.68 -0.34 1.36 0 0 Z " fill="#6E6E6E" transform="translate(258,288)"/>
<path d="M0 0 C0.99 0 1.98 0 3 0 C3 0.99 3 1.98 3 3 C1.68 2.67 0.36 2.34 -1 2 C-0.67 1.34 -0.34 0.68 0 0 Z " fill="#808080" transform="translate(255,268)"/>
<path d="M0 0 C0.99 0.33 1.98 0.66 3 1 C2.67 1.66 2.34 2.32 2 3 C1.01 3 0.02 3 -1 3 C-0.67 2.01 -0.34 1.02 0 0 Z " fill="#8B8B8B" transform="translate(203,299)"/>
<path d="M0 0 C0.99 0 1.98 0 3 0 C3 0.99 3 1.98 3 3 C2.01 3 1.02 3 0 3 C0 2.01 0 1.02 0 0 Z " fill="#8C8C8C" transform="translate(172,287)"/>
<path d="M0 0 C0.99 0.33 1.98 0.66 3 1 C2.67 1.99 2.34 2.98 2 4 C1.34 3.67 0.68 3.34 0 3 C0 2.01 0 1.02 0 0 Z " fill="#878787" transform="translate(278,56)"/>
<path d="M0 0 C0.99 0 1.98 0 3 0 C3 0.99 3 1.98 3 3 C2.01 3 1.02 3 0 3 C0 2.01 0 1.02 0 0 Z " fill="#6F6F6F" transform="translate(206,18)"/>
<path d="M0 0 C0.66 0.33 1.32 0.66 2 1 C1.67 1.99 1.34 2.98 1 4 C0.34 3.67 -0.32 3.34 -1 3 C-0.67 2.01 -0.34 1.02 0 0 Z " fill="#7B7B7B" transform="translate(226,303)"/>
<path d="M0 0 C0.66 0 1.32 0 2 0 C2 0.99 2 1.98 2 3 C1.34 3 0.68 3 0 3 C0 2.01 0 1.02 0 0 Z " fill="#828282" transform="translate(276,263)"/>
<path d="M0 0 C0.99 0 1.98 0 3 0 C3 0.66 3 1.32 3 2 C2.01 2 1.02 2 0 2 C0 1.34 0 0.68 0 0 Z " fill="#7A7A7A" transform="translate(299,69)"/>
</svg>
