<?xml version="1.0" encoding="UTF-8"?>
<svg version="1.1" xmlns="http://www.w3.org/2000/svg" width="461" height="307">
<path d="M0 0 C10.57826082 8.73467221 16.62248795 20.51992186 17.9375 34.14453125 C18.54820146 47.63518641 15.00793128 59.58841713 6.55859375 70.21875 C-1.98622603 79.43853874 -11.42595679 84.07428131 -23.44140625 87.21875 C-22.88453125 87.43789062 -22.32765625 87.65703125 -21.75390625 87.8828125 C-10.96297195 92.36688317 -1.63428468 99.34804071 2.93359375 110.40625 C7.02030239 121.40482673 6.43441214 131.54388133 1.55859375 142.21875 C-3.98121147 151.46132658 -12.9907408 159.20442922 -23.44140625 162.21875 C-27.32757983 162.85232139 -31.16804856 163.33517298 -35.0859375 163.7265625 C-38.06320469 164.16327457 -39.95936416 164.57206832 -42.44140625 166.21875 C-42.77140625 166.87875 -43.10140625 167.53875 -43.44140625 168.21875 C-41.46140625 168.54875 -39.48140625 168.87875 -37.44140625 169.21875 C-37.11140625 168.22875 -36.78140625 167.23875 -36.44140625 166.21875 C-35.45140625 166.54875 -34.46140625 166.87875 -33.44140625 167.21875 C-32.25390625 169.78125 -32.25390625 169.78125 -31.44140625 172.21875 C-32.10140625 172.21875 -32.76140625 172.21875 -33.44140625 172.21875 C-33.44140625 173.53875 -33.44140625 174.85875 -33.44140625 176.21875 C-33.97765625 175.88875 -34.51390625 175.55875 -35.06640625 175.21875 C-37.98051235 173.99175796 -40.31008333 174.07641714 -43.44140625 174.21875 C-40.81941851 176.37252564 -38.79736453 177.61947174 -35.44140625 178.21875 C-36.10140625 180.19875 -36.76140625 182.17875 -37.44140625 184.21875 C-39.42140625 184.54875 -41.40140625 184.87875 -43.44140625 185.21875 C-43.70953125 184.125625 -43.97765625 183.0325 -44.25390625 181.90625 C-45.31804364 178.60182337 -45.78795289 177.26914578 -48.44140625 175.21875 C-50.5389062 177.57843744 -51.41046329 178.76491994 -51.62890625 181.96875 C-51.53609375 183.0825 -51.53609375 183.0825 -51.44140625 184.21875 C-53.93205513 184.90582555 -55.82026917 185.21875 -58.44140625 185.21875 C-58.44140625 184.22875 -58.44140625 183.23875 -58.44140625 182.21875 C-59.10140625 182.21875 -59.76140625 182.21875 -60.44140625 182.21875 C-60.44140625 181.22875 -60.44140625 180.23875 -60.44140625 179.21875 C-59.67828125 178.97125 -58.91515625 178.72375 -58.12890625 178.46875 C-55.20500175 177.10879442 -54.14136269 175.90289174 -52.44140625 173.21875 C-54.78452755 173.47436323 -57.11984028 173.81145772 -59.44140625 174.21875 C-59.77140625 174.87875 -60.10140625 175.53875 -60.44140625 176.21875 C-61.43140625 175.88875 -62.42140625 175.55875 -63.44140625 175.21875 C-64.28594981 171.84057575 -64.54985544 169.54409757 -63.44140625 166.21875 C-62.90515625 166.54875 -62.36890625 166.87875 -61.81640625 167.21875 C-58.90230015 168.44574204 -56.57272917 168.36108286 -53.44140625 168.21875 C-55.91212294 165.22788243 -57.63602817 164.73406161 -61.44140625 164.21875 C-64.713585 164.10440458 -67.98026673 164.12451449 -71.25390625 164.15625 C-72.57938477 164.16301758 -72.57938477 164.16301758 -73.93164062 164.16992188 C-76.10159184 164.18165134 -78.27150797 164.19958505 -80.44140625 164.21875 C-80.25578125 164.858125 -80.07015625 165.4975 -79.87890625 166.15625 C-79.73453125 166.836875 -79.59015625 167.5175 -79.44140625 168.21875 C-79.77140625 168.54875 -80.10140625 168.87875 -80.44140625 169.21875 C-78.79140625 169.87875 -77.14140625 170.53875 -75.44140625 171.21875 C-75.44140625 172.86875 -75.44140625 174.51875 -75.44140625 176.21875 C-77.42140625 177.20875 -77.42140625 177.20875 -79.44140625 178.21875 C-79.23515625 178.8375 -79.02890625 179.45625 -78.81640625 180.09375 C-78.69265625 180.795 -78.56890625 181.49625 -78.44140625 182.21875 C-79.10140625 182.87875 -79.76140625 183.53875 -80.44140625 184.21875 C-82.81640625 184.15625 -82.81640625 184.15625 -85.44140625 183.21875 C-85.98539062 182.38085938 -86.529375 181.54296875 -87.08984375 180.6796875 C-89.33000917 177.81690181 -89.33000917 177.81690181 -93.33203125 177.73046875 C-94.78596165 177.76351262 -96.239492 177.82288037 -97.69140625 177.90625 C-98.43648438 177.92880859 -99.1815625 177.95136719 -99.94921875 177.97460938 C-101.78081525 178.03331439 -103.61137278 178.12299243 -105.44140625 178.21875 C-100.21820387 185.52574821 -100.21820387 185.52574821 -92.84375 189.87890625 C-90.46699589 189.83325214 -90.46699589 189.83325214 -88.25390625 189.41015625 C-87.35671875 189.31541016 -87.35671875 189.31541016 -86.44140625 189.21875 C-85.78140625 189.87875 -85.12140625 190.53875 -84.44140625 191.21875 C-84.62890625 193.21875 -84.62890625 193.21875 -85.44140625 195.21875 C-86.92640625 196.20875 -86.92640625 196.20875 -88.44140625 197.21875 C-88.23515625 198.0025 -88.02890625 198.78625 -87.81640625 199.59375 C-87.69265625 200.46 -87.56890625 201.32625 -87.44140625 202.21875 C-88.10140625 202.87875 -88.76140625 203.53875 -89.44140625 204.21875 C-92.97712054 203.68303571 -92.97712054 203.68303571 -94.44140625 202.21875 C-95.92640625 204.19875 -95.92640625 204.19875 -97.44140625 206.21875 C-98.76140625 205.88875 -100.08140625 205.55875 -101.44140625 205.21875 C-102.48095366 202.3311183 -102.40252086 201.06320846 -101.63671875 198 C-101.40158283 193.44776855 -102.29177102 192.28723663 -105.16601562 188.98242188 C-105.69001953 188.42103516 -106.21402344 187.85964844 -106.75390625 187.28125 C-107.26630859 186.69279297 -107.77871094 186.10433594 -108.30664062 185.49804688 C-109.62601113 184.01698038 -111.02842818 182.61079507 -112.44140625 181.21875 C-113.10140625 181.21875 -113.76140625 181.21875 -114.44140625 181.21875 C-121.42905502 189.32847628 -121.42905502 189.32847628 -124.58203125 199.1484375 C-123.92409735 201.79105491 -123.92409735 201.79105491 -122.44140625 205.21875 C-123.10140625 205.87875 -123.76140625 206.53875 -124.44140625 207.21875 C-127.37593886 206.85193342 -128.30577871 206.35437754 -130.44140625 204.21875 C-131.10140625 204.87875 -131.76140625 205.53875 -132.44140625 206.21875 C-135.06640625 205.84375 -135.06640625 205.84375 -137.44140625 205.21875 C-137.11140625 203.56875 -136.78140625 201.91875 -136.44140625 200.21875 C-138.09140625 199.55875 -139.74140625 198.89875 -141.44140625 198.21875 C-140.56640625 193.34375 -140.56640625 193.34375 -139.44140625 192.21875 C-138.86390625 192.26515625 -138.28640625 192.3115625 -137.69140625 192.359375 C-134.83435186 192.49825959 -133.11414351 192.31306708 -130.44140625 191.21875 C-126.80200263 187.07584994 -124.36435749 182.99754329 -121.44140625 178.21875 C-127.38140625 177.88875 -133.32140625 177.55875 -139.44140625 177.21875 C-140.10140625 178.86875 -140.76140625 180.51875 -141.44140625 182.21875 C-142.10140625 182.87875 -142.76140625 183.53875 -143.44140625 184.21875 C-146.06640625 183.84375 -146.06640625 183.84375 -148.44140625 183.21875 C-148.11140625 181.23875 -147.78140625 179.25875 -147.44140625 177.21875 C-148.76140625 176.88875 -150.08140625 176.55875 -151.44140625 176.21875 C-151.62890625 173.84375 -151.62890625 173.84375 -151.44140625 171.21875 C-150.45140625 170.55875 -149.46140625 169.89875 -148.44140625 169.21875 C-148.77140625 167.89875 -149.10140625 166.57875 -149.44140625 165.21875 C-152.46935037 165.53694074 -154.00175856 165.72861645 -156.07421875 168.0390625 C-156.56664062 168.79960937 -157.0590625 169.56015625 -157.56640625 170.34375 C-163.77787055 178.80535429 -172.41380136 182.90094612 -182.44140625 185.21875 C-185.84184229 185.57377928 -189.18960094 185.5727171 -192.60546875 185.51171875 C-193.52355316 185.50747391 -194.44163757 185.50322906 -195.38754272 185.49885559 C-198.28081303 185.48224497 -201.17335135 185.44462775 -204.06640625 185.40625 C-206.04426068 185.39118032 -208.02212617 185.37749595 -210 185.36523438 C-214.81407827 185.33239953 -219.62761876 185.28074238 -224.44140625 185.21875 C-224.5192334 186.13346069 -224.5192334 186.13346069 -224.59863281 187.06665039 C-224.6756543 187.87094482 -224.75267578 188.67523926 -224.83203125 189.50390625 C-224.90454102 190.29933838 -224.97705078 191.09477051 -225.05175781 191.91430664 C-225.64650072 195.4317116 -227.11339479 197.56740361 -229.44140625 200.21875 C-233.08359276 202.32738429 -236.27949297 202.72837203 -240.44140625 202.21875 C-243.44826499 200.59967222 -245.69951415 199.16297632 -247.81640625 196.46875 C-248.44140625 194.21875 -248.44140625 194.21875 -248.44140625 186.21875 C-257.68140625 185.88875 -266.92140625 185.55875 -276.44140625 185.21875 C-276.77140625 188.18875 -277.10140625 191.15875 -277.44140625 194.21875 C-279.95215497 197.68949088 -281.91389691 198.98430141 -285.81640625 200.71875 C-290.41949775 201.35365917 -292.48115925 200.60984253 -296.44140625 198.21875 C-300.31440001 193.74991105 -300.44140625 192.41146858 -300.44140625 186.21875 C-309.35140625 185.88875 -318.26140625 185.55875 -327.44140625 185.21875 C-328.10140625 188.51875 -328.76140625 191.81875 -329.44140625 195.21875 C-332.29670502 198.39851454 -334.35701558 199.84959573 -338.37890625 201.21875 C-342.43881306 201.21875 -344.91850061 200.21284753 -348.44140625 198.21875 C-352.06881961 194.1232833 -351.70613223 190.42502752 -351.44140625 185.21875 C-352.49328125 185.30125 -353.54515625 185.38375 -354.62890625 185.46875 C-366.00654837 185.42840375 -375.81327347 180.19244874 -384.12890625 172.84375 C-393.09447514 162.66661774 -397.24672807 153.74348301 -396.82421875 139.87109375 C-395.8817295 130.87897697 -392.35153088 123.94455768 -386.44140625 117.21875 C-385.93996094 116.61289063 -385.43851562 116.00703125 -384.921875 115.3828125 C-378.4772249 108.20118294 -369.95817215 104.24180233 -360.44140625 103.21875 C-360.47621094 102.26355469 -360.51101563 101.30835938 -360.546875 100.32421875 C-360.8738018 84.70957213 -357.18389327 71.50834605 -346.75390625 59.40625 C-335.73067478 47.93680076 -322.28238831 42.270852 -306.56103516 41.25585938 C-300.78862002 41.15479889 -295.09891092 42.16203217 -289.44140625 43.21875 C-289.07789063 42.36216797 -289.07789063 42.36216797 -288.70703125 41.48828125 C-283.43222598 32.02944835 -271.52512051 25.87532061 -261.55444336 22.59863281 C-246.57032441 18.42842781 -231.17914946 21.08447843 -217.56640625 28.09375 C-209.77965381 32.61436099 -204.55541851 37.83808761 -199.44140625 45.21875 C-198.96703125 44.579375 -198.49265625 43.94 -198.00390625 43.28125 C-187.08499788 30.23182292 -174.72863656 21.46054323 -157.44140625 19.21875 C-142.68339556 18.13021588 -129.71075928 22.03918131 -117.44140625 30.21875 C-113.87625433 30.50555957 -110.35113516 30.63323011 -106.77734375 30.69726562 C-101.78830023 30.87606876 -98.14364002 31.51651623 -94.44140625 35.21875 C-94.06640625 38.03125 -94.06640625 38.03125 -94.44140625 41.21875 C-97.17078882 44.02394876 -99.54617296 45.6416784 -103.44140625 46.21875 C-103.44140625 46.87875 -103.44140625 47.53875 -103.44140625 48.21875 C-102.9103125 48.01378906 -102.37921875 47.80882812 -101.83203125 47.59765625 C-100.77242188 47.19353516 -100.77242188 47.19353516 -99.69140625 46.78125 C-98.64726563 46.38099609 -98.64726563 46.38099609 -97.58203125 45.97265625 C-93.31043563 44.46824392 -89.74586576 44.10674501 -85.19140625 44.15625 C-83.57492187 44.16978516 -83.57492187 44.16978516 -81.92578125 44.18359375 C-81.1059375 44.19519531 -80.28609375 44.20679688 -79.44140625 44.21875 C-79.75078125 42.8884375 -79.75078125 42.8884375 -80.06640625 41.53125 C-81.63736367 29.44696215 -76.86446824 18.18071195 -70.44140625 8.21875 C-62.54976334 -1.95396025 -51.88407561 -7.52322037 -39.56640625 -10.46875 C-24.69100659 -11.95628997 -12.15018629 -8.86477592 0 0 Z M-118.44140625 163.21875 C-117.45140625 164.86875 -116.46140625 166.51875 -115.44140625 168.21875 C-112.32808377 167.55006686 -112.32808377 167.55006686 -111.25390625 165.15625 C-110.98578125 164.516875 -110.71765625 163.8775 -110.44140625 163.21875 C-113.08140625 163.21875 -115.72140625 163.21875 -118.44140625 163.21875 Z M-105.01953125 165.61328125 C-106.60108509 168.01664875 -106.60108509 168.01664875 -106.44140625 170.21875 C-103.70897738 170.40854385 -100.98974944 170.54663731 -98.25390625 170.65625 C-97.10051758 170.74422852 -97.10051758 170.74422852 -95.92382812 170.83398438 C-93.5703139 170.90469081 -91.70826979 170.87139044 -89.44140625 170.21875 C-87.16392644 168.04670289 -86.00663604 166.00730568 -84.44140625 163.21875 C-87.35962088 163.08364747 -90.27158277 162.9846195 -93.19140625 162.90625 C-94.01640625 162.86435547 -94.84140625 162.82246094 -95.69140625 162.77929688 C-100.87768344 162.63318465 -100.87768344 162.63318465 -105.01953125 165.61328125 Z M-52.44140625 163.21875 C-51.45140625 164.86875 -50.46140625 166.51875 -49.44140625 168.21875 C-47.40143435 166.85551257 -47.40143435 166.85551257 -45.44140625 165.21875 C-45.44140625 164.55875 -45.44140625 163.89875 -45.44140625 163.21875 C-47.75140625 163.21875 -50.06140625 163.21875 -52.44140625 163.21875 Z M-135.06640625 164.65625 C-135.7728125 164.70845703 -136.47921875 164.76066406 -137.20703125 164.81445312 C-138.95220612 164.94416207 -140.6968635 165.08079954 -142.44140625 165.21875 C-141.56885464 167.8594149 -141.56885464 167.8594149 -139.44140625 170.21875 C-136.53552168 170.86989624 -133.71361999 170.68906903 -130.75390625 170.53125 C-129.95662109 170.50869141 -129.15933594 170.48613281 -128.33789062 170.46289062 C-126.37159291 170.40401944 -124.40626134 170.31433755 -122.44140625 170.21875 C-125.99629639 163.91689929 -128.17611052 164.10324656 -135.06640625 164.65625 Z " fill="#C5DFF6" transform="translate(396.44140625,56.78125)"/>
<path d="M0 0 C10.57826082 8.73467221 16.62248795 20.51992186 17.9375 34.14453125 C18.54820146 47.63518641 15.00793128 59.58841713 6.55859375 70.21875 C-1.98622603 79.43853874 -11.42595679 84.07428131 -23.44140625 87.21875 C-22.88453125 87.43789062 -22.32765625 87.65703125 -21.75390625 87.8828125 C-10.96297195 92.36688317 -1.63428468 99.34804071 2.93359375 110.40625 C7.02030239 121.40482673 6.43441214 131.54388133 1.55859375 142.21875 C-3.98121147 151.46132658 -12.9907408 159.20442922 -23.44140625 162.21875 C-27.32757983 162.85232139 -31.16804856 163.33517298 -35.0859375 163.7265625 C-38.06320469 164.16327457 -39.95936416 164.57206832 -42.44140625 166.21875 C-42.77140625 166.87875 -43.10140625 167.53875 -43.44140625 168.21875 C-41.46140625 168.54875 -39.48140625 168.87875 -37.44140625 169.21875 C-37.11140625 168.22875 -36.78140625 167.23875 -36.44140625 166.21875 C-35.45140625 166.54875 -34.46140625 166.87875 -33.44140625 167.21875 C-32.25390625 169.78125 -32.25390625 169.78125 -31.44140625 172.21875 C-32.10140625 172.21875 -32.76140625 172.21875 -33.44140625 172.21875 C-33.44140625 173.53875 -33.44140625 174.85875 -33.44140625 176.21875 C-33.97765625 175.88875 -34.51390625 175.55875 -35.06640625 175.21875 C-37.98051235 173.99175796 -40.31008333 174.07641714 -43.44140625 174.21875 C-40.81941851 176.37252564 -38.79736453 177.61947174 -35.44140625 178.21875 C-36.43140625 181.18875 -36.43140625 181.18875 -37.44140625 184.21875 C-39.42140625 184.54875 -41.40140625 184.87875 -43.44140625 185.21875 C-43.70953125 184.125625 -43.97765625 183.0325 -44.25390625 181.90625 C-45.31804364 178.60182337 -45.78795289 177.26914578 -48.44140625 175.21875 C-50.5389062 177.57843744 -51.41046329 178.76491994 -51.62890625 181.96875 C-51.56703125 182.71125 -51.50515625 183.45375 -51.44140625 184.21875 C-53.93205513 184.90582555 -55.82026917 185.21875 -58.44140625 185.21875 C-58.44140625 184.22875 -58.44140625 183.23875 -58.44140625 182.21875 C-59.10140625 182.21875 -59.76140625 182.21875 -60.44140625 182.21875 C-60.44140625 181.22875 -60.44140625 180.23875 -60.44140625 179.21875 C-59.67828125 178.97125 -58.91515625 178.72375 -58.12890625 178.46875 C-55.20500175 177.10879442 -54.14136269 175.90289174 -52.44140625 173.21875 C-54.78452755 173.47436323 -57.11984028 173.81145772 -59.44140625 174.21875 C-59.77140625 174.87875 -60.10140625 175.53875 -60.44140625 176.21875 C-61.43140625 175.88875 -62.42140625 175.55875 -63.44140625 175.21875 C-64.28594981 171.84057575 -64.54985544 169.54409757 -63.44140625 166.21875 C-62.90515625 166.54875 -62.36890625 166.87875 -61.81640625 167.21875 C-58.90230015 168.44574204 -56.57272917 168.36108286 -53.44140625 168.21875 C-55.8803381 165.26635881 -57.71083309 164.78170218 -61.44140625 164.21875 C-63.06909128 164.15233421 -64.69924743 164.13328335 -66.328125 164.15625 C-67.25874756 164.16462891 -68.18937012 164.17300781 -69.14819336 164.18164062 C-70.13182861 164.19388672 -71.11546387 164.20613281 -72.12890625 164.21875 C-82.2727015 164.28986081 -92.32443033 163.92605418 -102.44140625 163.21875 C-98.56640625 156.34375 -98.56640625 156.34375 -97.44140625 155.21875 C-95.92671177 154.98682135 -94.40386063 154.80659762 -92.87890625 154.65625 C-92.05261719 154.57246094 -91.22632813 154.48867187 -90.375 154.40234375 C-89.73691406 154.34175781 -89.09882813 154.28117188 -88.44140625 154.21875 C-88.44140625 152.89875 -88.44140625 151.57875 -88.44140625 150.21875 C-89.76140625 149.88875 -91.08140625 149.55875 -92.44140625 149.21875 C-92.42078125 148.455625 -92.40015625 147.6925 -92.37890625 146.90625 C-92.31197784 144.11689214 -92.31197784 144.11689214 -93.44140625 141.21875 C-92.8828125 139.4140625 -92.8828125 139.4140625 -92.00390625 137.34375 C-88.9265789 128.5676683 -89.49856349 119.39065607 -93.05859375 110.8515625 C-99.00353079 99.53267107 -107.26046181 93.71003994 -119.25390625 89.90625 C-122.96135631 88.83601167 -126.64822962 87.92690312 -130.44140625 87.21875 C-130.72113281 86.25195312 -131.00085938 85.28515625 -131.2890625 84.2890625 C-135.33884693 70.89269296 -141.64413359 60.11511777 -153.9921875 52.68359375 C-162.12394638 48.45113048 -169.39833769 46.88763135 -178.50390625 46.96875 C-179.37595703 46.96101563 -180.24800781 46.95328125 -181.14648438 46.9453125 C-186.02722677 46.96009143 -189.82510946 47.49021093 -194.44140625 49.21875 C-195.76140625 49.21875 -197.08140625 49.21875 -198.44140625 49.21875 C-198.93640625 47.73375 -198.93640625 47.73375 -199.44140625 46.21875 C-192.66757308 34.04052286 -180.22565205 25.34213681 -167.2109375 21.1875 C-150.38369549 16.84498593 -135.43457401 19.67502424 -120.44140625 28.21875 C-118.95640625 29.20875 -118.95640625 29.20875 -117.44140625 30.21875 C-113.87625433 30.50555957 -110.35113516 30.63323011 -106.77734375 30.69726562 C-101.78830023 30.87606876 -98.14364002 31.51651623 -94.44140625 35.21875 C-94.06640625 38.03125 -94.06640625 38.03125 -94.44140625 41.21875 C-97.17078882 44.02394876 -99.54617296 45.6416784 -103.44140625 46.21875 C-103.44140625 46.87875 -103.44140625 47.53875 -103.44140625 48.21875 C-102.9103125 48.01378906 -102.37921875 47.80882812 -101.83203125 47.59765625 C-101.125625 47.32824219 -100.41921875 47.05882812 -99.69140625 46.78125 C-98.9953125 46.51441406 -98.29921875 46.24757812 -97.58203125 45.97265625 C-93.31043563 44.46824392 -89.74586576 44.10674501 -85.19140625 44.15625 C-83.57492187 44.16978516 -83.57492187 44.16978516 -81.92578125 44.18359375 C-81.1059375 44.19519531 -80.28609375 44.20679688 -79.44140625 44.21875 C-79.64765625 43.331875 -79.85390625 42.445 -80.06640625 41.53125 C-81.63736367 29.44696215 -76.86446824 18.18071195 -70.44140625 8.21875 C-62.54976334 -1.95396025 -51.88407561 -7.52322037 -39.56640625 -10.46875 C-24.69100659 -11.95628997 -12.15018629 -8.86477592 0 0 Z M-52.44140625 163.21875 C-51.45140625 164.86875 -50.46140625 166.51875 -49.44140625 168.21875 C-47.40143435 166.85551257 -47.40143435 166.85551257 -45.44140625 165.21875 C-45.44140625 164.55875 -45.44140625 163.89875 -45.44140625 163.21875 C-47.75140625 163.21875 -50.06140625 163.21875 -52.44140625 163.21875 Z " fill="#C6E0F6" transform="translate(396.44140625,56.78125)"/>
<path d="M0 0 C5.28296893 4.2541194 10.66617358 9.72625346 11.97265625 16.5625 C12.4625 16.3459375 12.95234375 16.129375 13.45703125 15.90625 C25.8864658 11.27735713 40.84690787 11.93645408 52.9921875 17.01953125 C65.96531814 23.73563427 74.07705823 34.54524794 79.28515625 47.9375 C79.97265625 50.5625 79.97265625 50.5625 79.97265625 54.5625 C80.5553125 54.57667969 81.13796875 54.59085937 81.73828125 54.60546875 C92.89049438 55.25426102 103.00688859 59.68846863 110.97265625 67.5625 C118.50576488 76.41720663 121.62452017 84.64551398 121.32421875 96.26171875 C120.78767997 101.29922169 119.71453031 106.24935141 116.97265625 110.5625 C114.328125 111.86328125 114.328125 111.86328125 111.97265625 112.5625 C111.31265625 111.5725 110.65265625 110.5825 109.97265625 109.5625 C108.98265625 109.5625 107.99265625 109.5625 106.97265625 109.5625 C107.10285156 110.29855469 107.23304688 111.03460938 107.3671875 111.79296875 C108.4948348 119.77080994 108.4948348 119.77080994 106.03515625 123.5 C95.92354034 130.30986378 95.92354034 130.30986378 89.97265625 129.5625 C86.85100342 127.45523339 84.78263346 124.85011397 82.97265625 121.5625 C82.41247998 117.81325005 82.53752398 114.31983262 82.97265625 110.5625 C81.65265625 110.5625 80.33265625 110.5625 78.97265625 110.5625 C78.64265625 111.8825 78.31265625 113.2025 77.97265625 114.5625 C77.31265625 114.5625 76.65265625 114.5625 75.97265625 114.5625 C75.97265625 113.9025 75.97265625 113.2425 75.97265625 112.5625 C74.65265625 112.8925 73.33265625 113.2225 71.97265625 113.5625 C71.97265625 115.5425 71.97265625 117.5225 71.97265625 119.5625 C70.65265625 119.8925 69.33265625 120.2225 67.97265625 120.5625 C67.97265625 121.5525 67.97265625 122.5425 67.97265625 123.5625 C68.62492188 123.55347656 69.2771875 123.54445312 69.94921875 123.53515625 C70.82320312 123.56480469 71.6971875 123.59445313 72.59765625 123.625 C73.88542969 123.64240234 73.88542969 123.64240234 75.19921875 123.66015625 C77.97265625 124.5625 77.97265625 124.5625 83.97265625 131.5625 C75.06265625 131.5625 66.15265625 131.5625 56.97265625 131.5625 C57.96265625 127.9325 58.95265625 124.3025 59.97265625 120.5625 C61.19624021 109.50226066 59.09498878 100.74252232 52.703125 91.69921875 C45.42182975 82.70854494 35.59230294 77.24656273 24.09765625 75.9375 C22.7232667 75.80595777 21.34842986 75.67867644 19.97265625 75.5625 C19.74191406 74.72847656 19.51117188 73.89445312 19.2734375 73.03515625 C15.25049786 59.15362935 9.56122149 48.13138863 -3.40234375 40.87890625 C-14.91226473 35.1068179 -26.91652892 32.00711284 -39.58984375 36.125 C-40.35425781 36.41503906 -41.11867187 36.70507812 -41.90625 37.00390625 C-44.42936244 37.66837233 -45.63397782 37.58893322 -48.02734375 36.5625 C-49.44921875 34.99609375 -49.44921875 34.99609375 -50.77734375 33 C-58.49607197 22.34170698 -67.39409738 17.2733664 -79.02734375 11.5625 C-77.45386061 4.50183549 -71.5222396 0.71364747 -65.71484375 -3.125 C-44.69711425 -15.99004763 -20.03308087 -14.20457372 0 0 Z " fill="#86A3BF" transform="translate(186.02734375,89.4375)"/>
<path d="M0 0 C10.57826082 8.73467221 16.62248795 20.51992186 17.9375 34.14453125 C18.54820146 47.63518641 15.00793128 59.58841713 6.55859375 70.21875 C0.73837255 76.49871976 -5.49286909 81.02651492 -13.44140625 84.21875 C-14.79878906 84.77369141 -14.79878906 84.77369141 -16.18359375 85.33984375 C-20.31185158 86.45358237 -24.06633626 86.43739561 -28.31640625 86.34375 C-29.10015625 86.33472656 -29.88390625 86.32570313 -30.69140625 86.31640625 C-32.6082068 86.29303063 -34.52484816 86.25716653 -36.44140625 86.21875 C-36.58835937 85.48011719 -36.7353125 84.74148437 -36.88671875 83.98046875 C-39.55766086 71.8998283 -44.49526592 61.90637811 -54.44140625 54.21875 C-61.97653064 49.60954526 -69.58792286 46.21833683 -78.44140625 45.21875 C-81.76752216 36.86537492 -80.16393623 28.14558329 -76.8359375 20 C-70.99341617 7.05089216 -62.35211239 -2.29378215 -49.01953125 -7.77734375 C-31.70924408 -13.8475619 -14.73405946 -10.74996978 0 0 Z " fill="#FECC05" transform="translate(396.44140625,56.78125)"/>
<path d="M0 0 C2.8992226 0.46761655 3.86675182 0.86675182 6 3 C8.60280568 2.67958603 8.60280568 2.67958603 11 2 C12.125 5.75 12.125 5.75 11 8 C13.475 8.495 13.475 8.495 16 9 C16 10.32 16 11.64 16 13 C15.67 13.33 15.34 13.66 15 14 C14.4225 13.94199219 13.845 13.88398438 13.25 13.82421875 C10.34016892 13.6474061 8.70235449 13.8236326 6 15 C2.2411738 19.08085059 -0.35780179 24.15909311 -3 29 C-0.24677259 28.96693723 2.49840371 28.89974574 5.25 28.8125 C6.02730469 28.80669922 6.80460937 28.80089844 7.60546875 28.79492188 C12.59773168 28.64140474 12.59773168 28.64140474 16.375 25.46875 C16.91125 24.6540625 17.4475 23.839375 18 23 C20.75 22.6875 20.75 22.6875 23 23 C23.5625 24.9375 23.5625 24.9375 24 27 C23.505 27.495 23.505 27.495 23 28 C24.65 28.66 26.3 29.32 28 30 C28 31.65 28 33.3 28 35 C26.02 35.99 26.02 35.99 24 37 C24.309375 37.928125 24.309375 37.928125 24.625 38.875 C24.74875 39.57625 24.8725 40.2775 25 41 C24.01 41.99 24.01 41.99 23 43 C20.625 42.9375 20.625 42.9375 18 42 C17.45601563 41.16210938 16.91203125 40.32421875 16.3515625 39.4609375 C14.11139708 36.59815181 14.11139708 36.59815181 10.109375 36.51171875 C8.6554446 36.54476262 7.20191425 36.60413037 5.75 36.6875 C4.63238281 36.72133789 4.63238281 36.72133789 3.4921875 36.75585938 C1.660591 36.81456439 -0.16996653 36.90424243 -2 37 C3.22320238 44.30699821 3.22320238 44.30699821 10.59765625 48.66015625 C12.97441036 48.61450214 12.97441036 48.61450214 15.1875 48.19140625 C15.785625 48.12824219 16.38375 48.06507813 17 48 C17.66 48.66 18.32 49.32 19 50 C18.8125 52 18.8125 52 18 54 C17.01 54.66 16.02 55.32 15 56 C15.20625 56.78375 15.4125 57.5675 15.625 58.375 C15.74875 59.24125 15.8725 60.1075 16 61 C15.34 61.66 14.68 62.32 14 63 C10.46428571 62.46428571 10.46428571 62.46428571 9 61 C8.01 62.32 7.02 63.64 6 65 C4.68 64.67 3.36 64.34 2 64 C0.96045259 61.1123683 1.03888539 59.84445846 1.8046875 56.78125 C2.03982342 52.22901855 1.14963523 51.06848663 -1.72460938 47.76367188 C-2.24861328 47.20228516 -2.77261719 46.64089844 -3.3125 46.0625 C-3.82490234 45.47404297 -4.33730469 44.88558594 -4.86523438 44.27929688 C-6.18460488 42.79823038 -7.58702193 41.39204507 -9 40 C-9.66 40 -10.32 40 -11 40 C-17.98764877 48.10972628 -17.98764877 48.10972628 -21.140625 57.9296875 C-20.4826911 60.57230491 -20.4826911 60.57230491 -19 64 C-19.99 64.99 -19.99 64.99 -21 66 C-23.93453261 65.63318342 -24.86437246 65.13562754 -27 63 C-27.99 63.99 -27.99 63.99 -29 65 C-31.625 64.625 -31.625 64.625 -34 64 C-33.67 62.35 -33.34 60.7 -33 59 C-34.65 58.34 -36.3 57.68 -38 57 C-37.125 52.125 -37.125 52.125 -36 51 C-35.4225 51.04640625 -34.845 51.0928125 -34.25 51.140625 C-31.39294561 51.27950959 -29.67273726 51.09431708 -27 50 C-23.36059638 45.85709994 -20.92295124 41.77879329 -18 37 C-23.94 36.67 -29.88 36.34 -36 36 C-36.99 38.475 -36.99 38.475 -38 41 C-38.66 41.66 -39.32 42.32 -40 43 C-42.625 42.625 -42.625 42.625 -45 42 C-44.505 39.03 -44.505 39.03 -44 36 C-45.32 35.67 -46.64 35.34 -48 35 C-48.1875 32.625 -48.1875 32.625 -48 30 C-47.01 29.34 -46.02 28.68 -45 28 C-45 26.35 -45 24.7 -45 23 C-38.07 23 -31.14 23 -24 23 C-24 23.33 -24 23.66 -24 24 C-28.62 24.33 -33.24 24.66 -38 25 C-37.34 25.99 -36.68 26.98 -36 28 C-33.2114711 28.22107787 -30.65346819 28.28107535 -27.875 28.1875 C-27.12089844 28.17396484 -26.36679687 28.16042969 -25.58984375 28.14648438 C-23.72625873 28.11109985 -21.86304022 28.05729167 -20 28 C-21.12327771 26.54033966 -22.24868294 25.08231636 -23.375 23.625 C-24.00148438 22.81289062 -24.62796875 22.00078125 -25.2734375 21.1640625 C-27.71493378 17.90180329 -27.71493378 17.90180329 -31.3828125 16.5859375 C-32.28773438 16.51632813 -33.19265625 16.44671875 -34.125 16.375 C-35.03507812 16.30023438 -35.94515625 16.22546875 -36.8828125 16.1484375 C-37.58148438 16.09945312 -38.28015625 16.05046875 -39 16 C-39.33 14.68 -39.66 13.36 -40 12 C-38.35 11.67 -36.7 11.34 -35 11 C-35.33 9.02 -35.66 7.04 -36 5 C-34.35 4.67 -32.7 4.34 -31 4 C-31 4.66 -31 5.32 -31 6 C-30.34 6 -29.68 6 -29 6 C-28.67 4.35 -28.34 2.7 -28 1 C-25.525 1.495 -25.525 1.495 -23 2 C-23.06960938 2.71285156 -23.13921875 3.42570313 -23.2109375 4.16015625 C-23.49847907 9.24690359 -23.62526012 13.08139061 -20.4375 17.25 C-17.89124982 19.74245616 -17.2858448 19.98440847 -13.5625 20.1875 C-9.60626023 18.86875341 -6.55606861 17.1615319 -3 15 C-2.34 15 -1.68 15 -1 15 C-0.08312742 10.00813815 -0.20099952 5.99375303 -1 1 C-0.67 0.67 -0.34 0.34 0 0 Z M-15 22 C-14.01 23.65 -13.02 25.3 -12 27 C-8.88667752 26.33131686 -8.88667752 26.33131686 -7.8125 23.9375 C-7.544375 23.298125 -7.27625 22.65875 -7 22 C-9.64 22 -12.28 22 -15 22 Z " fill="#76C6EF" transform="translate(293,198)"/>
<path d="M0 0 C0.598125 0.165 1.19625 0.33 1.8125 0.5 C4.11344336 1.1114124 4.11344336 1.1114124 7 1 C7.99 1.33 8.98 1.66 10 2 C10 3.32 10 4.64 10 6 C11.32 6.66 12.64 7.32 14 8 C13.67 8.99 13.34 9.98 13 11 C11.783125 11.20625 10.56625 11.4125 9.3125 11.625 C6.28718829 12.23551335 5.20470932 12.76653696 3.13671875 15.125 C1.66305416 17.37594353 0.28400996 19.63625439 -1 22 C3.03932853 22.28580155 6.97005043 22.45551292 11 22 C13.81768639 19.74066274 13.81768639 19.74066274 15 17 C16.32 17.33 17.64 17.66 19 18 C18.505 20.475 18.505 20.475 18 23 C19.32 23 20.64 23 22 23 C21.625 25.4375 21.625 25.4375 21 28 C20.01 28.495 20.01 28.495 19 29 C18.34444881 31.52733235 18.34444881 31.52733235 18 34 C15.81385794 33.02000528 14.25384102 32.30956222 12.71875 30.4375 C10.25949291 28.3806668 8.46342758 28.70129079 5.3125 28.8125 C4.31863281 28.83957031 3.32476562 28.86664063 2.30078125 28.89453125 C1.16189453 28.94673828 1.16189453 28.94673828 0 29 C0.433125 29.48210937 0.86625 29.96421875 1.3125 30.4609375 C1.869375 31.09257812 2.42625 31.72421875 3 32.375 C3.8353125 33.31472656 3.8353125 33.31472656 4.6875 34.2734375 C6 36 6 36 6 38 C7.670625 37.7215625 7.670625 37.7215625 9.375 37.4375 C13 37 13 37 15 38 C14.49396008 40.16874252 14.00016187 41.99967627 13 44 C13 45.32 13 46.64 13 48 C10.92446352 48.5534764 9.15634036 49 7 49 C6.319375 49.185625 5.63875 49.37125 4.9375 49.5625 C4.298125 49.706875 3.65875 49.85125 3 50 C2.67 49.67 2.34 49.34 2 49 C2.165 47.865625 2.33 46.73125 2.5 45.5625 C2.63402154 40.94713328 0.52813256 38.82621436 -2.5 35.5 C-3.98159715 33.98182021 -5.47600467 32.47561453 -7 31 C-12.51021292 37.08436093 -12.51021292 37.08436093 -15.30859375 44.51171875 C-15.02486816 46.9078475 -15.02486816 46.9078475 -14 50 C-15.875 50.625 -15.875 50.625 -18 51 C-18.66 50.34 -19.32 49.68 -20 49 C-22.60280568 49.32041397 -22.60280568 49.32041397 -25 50 C-25.495 48.515 -25.495 48.515 -26 47 C-25.505 46.505 -25.505 46.505 -25 46 C-26.32 44.68 -27.64 43.36 -29 42 C-28.67 41.34 -28.34 40.68 -28 40 C-26.61633749 39.6009226 -25.2170997 39.25512305 -23.8125 38.9375 C-17.79371509 37.11071225 -16.00430519 33.31530917 -13 28 C-17.62 28 -22.24 28 -27 28 C-27.99 30.475 -27.99 30.475 -29 33 C-31.125 33.8125 -31.125 33.8125 -33 34 C-34.27253436 30.35206816 -35.32829194 26.8063457 -36 23 C-35.34 22.67 -34.68 22.34 -34 22 C-33.34444881 19.47266765 -33.34444881 19.47266765 -33 17 C-29.2663707 18.67369589 -29.2663707 18.67369589 -27.75 20.53125 C-25.21679155 22.65733566 -23.0704236 22.51234282 -19.8125 22.6875 C-18.72582031 22.75324219 -17.63914062 22.81898438 -16.51953125 22.88671875 C-15.27236328 22.94279297 -15.27236328 22.94279297 -14 23 C-16.11228541 19.76415852 -18.25155449 16.72713973 -21 14 C-24.71256453 13.33076238 -24.71256453 13.33076238 -28 14 C-28.66 13.67 -29.32 13.34 -30 13 C-30 11.68 -30 10.36 -30 9 C-29.01 8.34 -28.02 7.68 -27 7 C-26.27617533 4.94074861 -26.27617533 4.94074861 -26 3 C-23.01758453 2.22678118 -20.02419525 1.58803797 -17 1 C-17.185625 2.27875 -17.37125 3.5575 -17.5625 4.875 C-17.6328169 9.78937 -15.75264255 11.99426458 -12.5 15.5625 C-11.02068866 17.06235733 -9.52701053 18.54873404 -8 20 C-4.7949841 16.84221591 -2.09183842 14.02872584 0 10 C-0.01038134 7.21780016 -0.49464071 4.75650522 -1 2 C-0.67 1.34 -0.34 0.68 0 0 Z " fill="#9DD8F5" transform="translate(348,256)"/>
<path d="M0 0 C3.39175197 11.7964707 5.98015795 23.05952616 2 35 C-1.09677419 39.5483871 -1.09677419 39.5483871 -4 41 C-9.07137354 41.62831177 -12.78146785 41.88851302 -17 38.8125 C-21.1240638 33.01303528 -21.1240638 33.01303528 -20.87890625 29.03515625 C-19.59056945 21.47779915 -9.23520061 0 0 0 Z " fill="#4689C3" transform="translate(91,263)"/>
<path d="M0 0 C0.99 0.33 1.98 0.66 3 1 C6.66042303 10.17365279 8.44287351 24.48810822 4.609375 33.82421875 C2.764692 37.46433351 1.5908626 39.04844424 -2 41 C-5.8691875 41.75810328 -9.35127276 41.89805933 -12.87890625 39.9765625 C-16.58760783 37.0274745 -17.74923678 34.68369592 -18.4375 30.0625 C-18.23946 20.67540392 -11.2221931 12.55149544 -5.05078125 6.15625 C-3.18567344 4.19522236 -1.57344083 2.19782212 0 0 Z " fill="#4488C2" transform="translate(140,263)"/>
<path d="M0 0 C2.94116289 7.54472221 4.19716421 13.84701969 4.25 21.9375 C4.270625 22.72318359 4.29125 23.50886719 4.3125 24.31835938 C4.34593026 29.31200503 3.72585331 32.65462993 1 37 C-2.01872504 40.01872504 -4.75544971 40.83354705 -9 41 C-13.18237323 39.77413198 -15.49013932 38.53535372 -18.5 35.375 C-20.55405561 30.75337488 -20.48825265 27.80366698 -19 23 C-16.45070798 17.34520678 -7.41465704 0 0 0 Z " fill="#4186C1" transform="translate(116,217)"/>
<path d="M0 0 C2.59416753 7.22013751 3.46911051 13.66340711 3.375 21.3125 C3.38660156 22.27478516 3.39820312 23.23707031 3.41015625 24.22851562 C3.38917875 29.28059666 3.33542331 32.9270138 0 37 C-3.07698914 39.97088607 -5.73495496 40.83274333 -10 41 C-13.88030529 39.81617805 -16.27608079 38.84068038 -18.9375 35.75 C-21.32293868 29.57592343 -19.91137561 24.47570488 -17.3984375 18.62109375 C-14.68788496 13.54070059 -6.36734839 0 0 0 Z " fill="#3F84C1" transform="translate(65,217)"/>
<path d="M0 0 C0.66 0 1.32 0 2 0 C4.65372684 7.34753778 5.49348501 13.96299441 5.4375 21.75 C5.4674707 23.25240234 5.4674707 23.25240234 5.49804688 24.78515625 C5.49404626 30.82608849 5.06915525 34.42875745 1 39 C-2.64218651 41.10863429 -5.83808672 41.50962203 -10 41 C-13.00685874 39.38092222 -15.2581079 37.94422632 -17.375 35.25 C-19.02954622 29.29363362 -18.43805777 25.2502021 -15.6875 19.8125 C-11.48409363 12.60810399 -5.89972156 5.89972156 0 0 Z " fill="#3F85C1" transform="translate(166,218)"/>
<path d="M0 0 C0.93714844 -0.01160156 1.87429688 -0.02320312 2.83984375 -0.03515625 C11.60210776 0.00212998 11.60210776 0.00212998 15.5 3.375 C16.625 6.25 16.625 6.25 16.5 9.375 C14.7109375 12.03125 14.7109375 12.03125 11.5 14.375 C7.65409261 15.11851693 3.90595719 15.07314527 0 15 C-1.54880859 15.02900391 -1.54880859 15.02900391 -3.12890625 15.05859375 C-8.03609084 15.02693449 -10.66729134 14.98281654 -14.7109375 12.03125 C-16.5 9.375 -16.5 9.375 -16.625 6.25 C-15.5 3.375 -15.5 3.375 -13.5859375 1.71875 C-9.06649887 -0.24920809 -4.87499426 -0.06035069 0 0 Z " fill="#FFD11F" transform="translate(444.5,87.625)"/>
<path d="M0 0 C3.1875 0.75 3.1875 0.75 5.25 2.875 C6.1875 5.75 6.1875 5.75 5.8125 8.5625 C3.56849051 12.96421093 0.62878928 16.23448683 -2.8125 19.75 C-3.46992188 20.43191406 -4.12734375 21.11382812 -4.8046875 21.81640625 C-8.13831759 25.02680877 -9.96533929 26.6111212 -14.625 27.375 C-17.8125 26.75 -17.8125 26.75 -19.75 25.625 C-21.32005843 22.85430866 -21.12452545 20.89721964 -20.8125 17.75 C-18.29712451 13.98275939 -15.02733789 10.92978514 -11.8125 7.75 C-11.10867188 7.02425781 -10.40484375 6.29851563 -9.6796875 5.55078125 C-6.40617084 2.38638182 -4.54962516 0.89500823 0 0 Z " fill="#FFCF15" transform="translate(428.8125,25.25)"/>
<path d="M0 0 C5.76573929 0.8492622 8.36165356 4.08572219 12.2734375 8.19921875 C12.99660156 8.91207031 13.71976562 9.62492188 14.46484375 10.359375 C17.53623713 13.49991795 19.63095639 15.70540791 20.9375 19.94921875 C20.8984375 22.57421875 20.8984375 22.57421875 19.8984375 24.94921875 C17.8984375 26.57421875 17.8984375 26.57421875 14.7109375 27.26171875 C9.2499911 26.27695792 6.73248496 23.40826621 2.8984375 19.57421875 C1.7846875 18.58421875 1.7846875 18.58421875 0.6484375 17.57421875 C-2.82372931 14.39966624 -4.84735629 12.37697522 -6.2890625 7.82421875 C-6.1015625 4.57421875 -6.1015625 4.57421875 -5.1015625 2.13671875 C-3.1015625 0.57421875 -3.1015625 0.57421875 0 0 Z " fill="#FFD017" transform="translate(414.1015625,137.42578125)"/>
<path d="M0 0 C3.17306436 2.1996091 5.72992208 4.88897833 8.375 7.6875 C9.09816406 8.40873047 9.82132812 9.12996094 10.56640625 9.87304688 C16.53003133 15.99890941 16.53003133 15.99890941 17 21 C16 23.8125 16 23.8125 14 26 C10.8125 26.75 10.8125 26.75 7 26 C3.99058326 24.00174728 1.53609241 21.56010843 -1 19 C-1.7425 18.28199219 -2.485 17.56398438 -3.25 16.82421875 C-9.885743 10.34251979 -9.885743 10.34251979 -10.25 6.0625 C-10 3 -10 3 -8.9375 1.125 C-5.71000363 -0.74903015 -3.69331542 -0.52127875 0 0 Z " fill="#FFD017" transform="translate(306,26)"/>
<path d="M0 0 C3.83399975 3.81573998 3.41811765 7.55715423 3.45898438 12.6875 C3.45189453 13.780625 3.44480469 14.87375 3.4375 16 C3.45748047 17.093125 3.47746094 18.18625 3.49804688 19.3125 C3.49740234 20.364375 3.49675781 21.41625 3.49609375 22.5 C3.49794678 23.4590625 3.4997998 24.418125 3.50170898 25.40625 C2.85341498 28.7578196 1.70211568 29.96642734 -1 32 C-4.625 31.9375 -4.625 31.9375 -8 31 C-11.18133234 26.22800148 -10.32816905 21.10952168 -10.3125 15.5 C-10.32861328 14.34628906 -10.34472656 13.19257813 -10.36132812 12.00390625 C-10.36197266 10.89917969 -10.36261719 9.79445313 -10.36328125 8.65625 C-10.36626221 7.64369141 -10.36924316 6.63113281 -10.37231445 5.58789062 C-10 3 -10 3 -8.69604492 1.17382812 C-5.81833472 -0.81782736 -3.36606549 -0.42075819 0 0 Z " fill="#FFCF11" transform="translate(369,0)"/>
<path d="M0 0 C0.061875 0.7425 0.12375 1.485 0.1875 2.25 C1.24185138 5.8185739 2.99909773 6.92245228 6 9 C6.433125 8.505 6.86625 8.01 7.3125 7.5 C9 6 9 6 12 6 C11.67 7.32 11.34 8.64 11 10 C13.97 10.495 13.97 10.495 17 11 C17.33 10.01 17.66 9.02 18 8 C18.99 8.33 19.98 8.66 21 9 C22.1875 11.5625 22.1875 11.5625 23 14 C22.34 14 21.68 14 21 14 C21 15.32 21 16.64 21 18 C20.46375 17.67 19.9275 17.34 19.375 17 C16.4608939 15.77300796 14.13132292 15.85766714 11 16 C13.62198774 18.15377564 15.64404172 19.40072174 19 20 C18.34 21.98 17.68 23.96 17 26 C15.02 26.33 13.04 26.66 11 27 C10.731875 25.906875 10.46375 24.81375 10.1875 23.6875 C9.12336261 20.38307337 8.65345336 19.05039578 6 17 C3.90250005 19.35968744 3.03094296 20.54616994 2.8125 23.75 C2.874375 24.4925 2.93625 25.235 3 26 C0.50935112 26.68707555 -1.37886292 27 -4 27 C-4 26.01 -4 25.02 -4 24 C-4.66 24 -5.32 24 -6 24 C-6 23.01 -6 22.02 -6 21 C-5.236875 20.7525 -4.47375 20.505 -3.6875 20.25 C-0.7635955 18.89004442 0.30004356 17.68414174 2 15 C-0.3431213 15.25561323 -2.67843403 15.59270772 -5 16 C-5.33 16.66 -5.66 17.32 -6 18 C-6.99 17.67 -7.98 17.34 -9 17 C-9.84454356 13.62182575 -10.10844919 11.32534757 -9 8 C-8.195625 8.495 -8.195625 8.495 -7.375 9 C-4.4608939 10.22699204 -2.13132292 10.14233286 1 10 C-0.2488427 8.4166747 -0.2488427 8.4166747 -2 7 C-3.32 7 -4.64 7 -6 7 C-5.67 5.02 -5.34 3.04 -5 1 C-2 0 -2 0 0 0 Z " fill="#4EA3D9" transform="translate(342,215)"/>
<path d="M0 0 C2.93804996 -0.08086376 5.87388075 -0.1404283 8.8125 -0.1875 C9.64587891 -0.21263672 10.47925781 -0.23777344 11.33789062 -0.26367188 C12.54155273 -0.27817383 12.54155273 -0.27817383 13.76953125 -0.29296875 C14.87711792 -0.31653442 14.87711792 -0.31653442 16.00708008 -0.34057617 C18.58156881 0.09938607 19.44276386 0.9354618 21 3 C21.38601984 6.08815875 21.47901666 8.10184376 20 10.875 C17.48650813 12.28883918 15.23053742 12.89124471 12.33984375 12.83203125 C7.06205411 10.95528802 3.31371664 5.35264829 0 1 C0 0.67 0 0.34 0 0 Z " fill="#FECD0A" transform="translate(281,89)"/>
<path d="M0 0 C2.97 0 5.94 0 9 0 C9.33 1.32 9.66 2.64 10 4 C9.01 5.485 9.01 5.485 8 7 C7.83286431 9.62531524 7.83286431 9.62531524 8 12 C5.50935112 12.68707555 3.62113708 13 1 13 C1 12.01 1 11.02 1 10 C0.34 10 -0.32 10 -1 10 C-1 9.01 -1 8.02 -1 7 C-0.236875 6.7525 0.52625 6.505 1.3125 6.25 C4.2364045 4.89004442 5.30004356 3.68414174 7 1 C4.69 1 2.38 1 0 1 C0 0.67 0 0.34 0 0 Z " fill="#59A9DC" transform="translate(337,229)"/>
<path d="M0 0 C0.53625 0.28875 1.0725 0.5775 1.625 0.875 C4.35280484 2.16711808 7.12612718 3.08558592 10 4 C9.34 5.98 8.68 7.96 8 10 C6.02 10.33 4.04 10.66 2 11 C0.80712589 7.12315913 0 4.08378077 0 0 Z " fill="#5AA9DC" transform="translate(351,231)"/>
<path d="M0 0 C1.32 0.66 2.64 1.32 4 2 C4 2.66 4 3.32 4 4 C6.64 4 9.28 4 12 4 C12 4.66 12 5.32 12 6 C9.36 6 6.72 6 4 6 C3.67 7.32 3.34 8.64 3 10 C2.01 9.67 1.02 9.34 0 9 C-0.84454356 5.62182575 -1.10844919 3.32534757 0 0 Z " fill="#4DA3D9" transform="translate(333,223)"/>
<path d="M0 0 C0 0.33 0 0.66 0 1 C-1.50240234 1.27457031 -1.50240234 1.27457031 -3.03515625 1.5546875 C-8.04289124 2.98546892 -10.96459015 6.41321275 -14.4375 10.125 C-15.07365234 10.78371094 -15.70980469 11.44242188 -16.36523438 12.12109375 C-17.92219097 13.73658255 -19.46620915 15.36255308 -21 17 C-21.33 16.01 -21.66 15.02 -22 14 C-19.87801168 11.85111324 -17.75260401 9.70581417 -15.625 7.5625 C-15.02171875 6.95083984 -14.4184375 6.33917969 -13.796875 5.70898438 C-13.21679688 5.12568359 -12.63671875 4.54238281 -12.0390625 3.94140625 C-11.23782959 3.13231812 -11.23782959 3.13231812 -10.42041016 2.30688477 C-7.22052046 -0.63725575 -4.17736296 -0.07735857 0 0 Z " fill="#FFDC55" transform="translate(432,26)"/>
<path d="M0 0 C0.99 0.33 1.98 0.66 3 1 C4.1875 3.5625 4.1875 3.5625 5 6 C4.34 6 3.68 6 3 6 C3 7.32 3 8.64 3 10 C2.505 9.690625 2.01 9.38125 1.5 9.0625 C-1.97986781 7.58355618 -5.24028509 7.37597149 -9 7 C-9 6.67 -9 6.34 -9 6 C-6.36 5.67 -3.72 5.34 -1 5 C-0.67 3.35 -0.34 1.7 0 0 Z " fill="#79B9E2" transform="translate(360,223)"/>
<path d="M0 0 C4.29 0 8.58 0 13 0 C13.33 0.99 13.66 1.98 14 3 C9.38 3 4.76 3 0 3 C0 2.01 0 1.02 0 0 Z " fill="#89D0F3" transform="translate(322,280)"/>
<path d="M0 0 C4.29 0 8.58 0 13 0 C13 0.99 13 1.98 13 3 C8.71 3 4.42 3 0 3 C0 2.01 0 1.02 0 0 Z " fill="#89D0F3" transform="translate(346,280)"/>
<path d="M0 0 C0.625 2.875 0.625 2.875 1 6 C0.34 6.66 -0.32 7.32 -1 8 C-3.625 7.625 -3.625 7.625 -6 7 C-5.67 5.02 -5.34 3.04 -5 1 C-2 0 -2 0 0 0 Z " fill="#48A0D8" transform="translate(342,215)"/>
<path d="M0 0 C2.875 0.1875 2.875 0.1875 6 1 C7.375 3.5625 7.375 3.5625 8 6 C5.69 6 3.38 6 1 6 C0.67 4.02 0.34 2.04 0 0 Z " fill="#419CD7" transform="translate(352,214)"/>
<path d="M0 0 C0 3.57322755 -0.53341215 4.48587619 -3 7 C-5.48046875 7.609375 -5.48046875 7.609375 -8.1875 7.75 C-9.08855469 7.80671875 -9.98960937 7.8634375 -10.91796875 7.921875 C-11.60503906 7.94765625 -12.29210937 7.9734375 -13 8 C-13 7.34 -13 6.68 -13 6 C-11.96939453 5.60167969 -11.96939453 5.60167969 -10.91796875 5.1953125 C-10.01691406 4.84210938 -9.11585938 4.48890625 -8.1875 4.125 C-7.29417969 3.77695313 -6.40085937 3.42890625 -5.48046875 3.0703125 C-2.82288409 2.01167845 -2.82288409 2.01167845 0 0 Z " fill="#BBD8F1" transform="translate(290,213)"/>
<path d="M0 0 C2.97 0 5.94 0 9 0 C9.33 1.32 9.66 2.64 10 4 C8.8125 5.8125 8.8125 5.8125 7 7 C4.8125 6.6875 4.8125 6.6875 3 6 C4.32 4.35 5.64 2.7 7 1 C4.69 1 2.38 1 0 1 C0 0.67 0 0.34 0 0 Z " fill="#89C2E6" transform="translate(337,229)"/>
<path d="M0 0 C0.99 0 1.98 0 3 0 C3.66 1.32 4.32 2.64 5 4 C4.34 4 3.68 4 3 4 C3 4.66 3 5.32 3 6 C0.36 6 -2.28 6 -5 6 C-5 5.67 -5 5.34 -5 5 C-3.02 4.67 -1.04 4.34 1 4 C0.67 2.68 0.34 1.36 0 0 Z " fill="#78B9E2" transform="translate(342,221)"/>
<path d="M0 0 C1.98 0.99 1.98 0.99 4 2 C3.67 4.64 3.34 7.28 3 10 C3.66 10.33 4.32 10.66 5 11 C4.01 11 3.02 11 2 11 C0.80712589 7.12315913 0 4.08378077 0 0 Z " fill="#7BBAE3" transform="translate(351,231)"/>
</svg>
